Regular.ufo
<glyph name="quotedbl" format="2">
  <advance width="365.8132934068089"/>
  <unicode hex="0022"/>
  <outline>
    <contour>
      <point x="108.74696687619667" y="830" type="curve"/>
      <point x="63.746966876196666" y="831"/>
      <point x="55.746966876196666" y="792"/>
      <point x="61.746966876196666" y="756" type="curve" smooth="yes"/>
      <point x="64.74696687619667" y="738"/>
      <point x="75.74696687619667" y="667"/>
      <point x="92.74696687619667" y="564" type="curve"/>
      <point x="121.74696687619667" y="564" type="line"/>
      <point x="128.74696687619667" y="605"/>
      <point x="142.74696687619667" y="703"/>
      <point x="151.74696687619667" y="755" type="curve" smooth="yes"/>
      <point x="157.74696687619667" y="788"/>
      <point x="152.74696687619667" y="825"/>
    </contour>
    <contour>
      <point x="260.74696687619667" y="830" type="curve"/>
      <point x="215.74696687619667" y="831"/>
      <point x="207.74696687619667" y="792"/>
      <point x="213.74696687619667" y="756" type="curve" smooth="yes"/>
      <point x="216.74696687619667" y="738"/>
      <point x="227.74696687619667" y="667"/>
      <point x="244.74696687619667" y="564" type="curve"/>
      <point x="273.74696687619667" y="564" type="line"/>
      <point x="280.74696687619667" y="605"/>
      <point x="294.74696687619667" y="703"/>
      <point x="303.74696687619667" y="755" type="curve" smooth="yes"/>
      <point x="309.74696687619667" y="788"/>
      <point x="304.74696687619667" y="825"/>
    </contour>
  </outline>
</glyph>
<glyph name="comma" format="2">
  <advance width="300"/>
  <unicode hex="002C"/>
  <outline>
    <contour>
      <point x="133" y="123" type="curve"/>
      <point x="104" y="123"/>
      <point x="65" y="96"/>
      <point x="66" y="59" type="curve" smooth="yes"/>
      <point x="67" y="22"/>
      <point x="92" y="3"/>
      <point x="109" y="-1" type="curve" smooth="yes"/>
      <point x="126" y="-5"/>
      <point x="146" y="13"/>
      <point x="147" y="5" type="curve" smooth="yes"/>
      <point x="152" y="-24"/>
      <point x="123" y="-73"/>
      <point x="117" y="-81" type="curve" smooth="yes"/>
      <point x="113" y="-86"/>
      <point x="94" y="-110"/>
      <point x="49" y="-142" type="curve"/>
      <point x="72" y="-175" type="line"/>
      <point x="102" y="-152"/>
      <point x="124" y="-131"/>
      <point x="147" y="-114" type="curve" smooth="yes"/>
      <point x="170" y="-97"/>
      <point x="194" y="-38"/>
      <point x="199" y="-25" type="curve" smooth="yes"/>
      <point x="204" y="-12"/>
      <point x="211" y="41"/>
      <point x="201" y="68" type="curve" smooth="yes"/>
      <point x="198" y="75"/>
      <point x="187" y="121"/>
    </contour>
  </outline>
</glyph>
<glyph name="period" format="2">
  <advance width="172.03405577281654"/>
  <unicode hex="002E"/>
  <outline>
    <contour>
      <point x="152" y="53" type="curve" smooth="yes"/>
      <point x="153" y="84"/>
      <point x="132" y="121"/>
      <point x="86" y="121" type="curve" smooth="yes"/>
      <point x="41" y="121"/>
      <point x="20" y="81"/>
      <point x="20" y="53" type="curve" smooth="yes"/>
      <point x="20" y="37"/>
      <point x="40" y="-11"/>
      <point x="85" y="-10" type="curve" smooth="yes"/>
      <point x="130" y="-9"/>
      <point x="151" y="23"/>
    </contour>
  </outline>
</glyph>
<glyph name="slash" format="2">
  <advance width="500"/>
  <unicode hex="002F"/>
  <outline>
    <contour>
      <point x="382" y="770" type="curve"/>
      <point x="371" y="747"/>
      <point x="169" y="299"/>
      <point x="31" y="7" type="curve" smooth="yes"/>
      <point x="30" y="6"/>
      <point x="84" y="-2"/>
      <point x="84" y="-2" type="curve" smooth="yes"/>
      <point x="134" y="105"/>
      <point x="256" y="377"/>
      <point x="431" y="770" type="curve"/>
      <point x="413" y="770"/>
      <point x="410" y="770"/>
    </contour>
  </outline>
</glyph>
<glyph name="two" format="2">
  <advance width="600"/>
  <unicode hex="0032"/>
  <outline>
    <contour>
      <point x="296" y="780" type="curve"/>
      <point x="243" y="779"/>
      <point x="241" y="776"/>
      <point x="172" y="751" type="curve"/>
      <point x="139" y="732"/>
      <point x="110" y="710"/>
      <point x="73" y="652" type="curve"/>
      <point x="62" y="621"/>
      <point x="53" y="597"/>
      <point x="64" y="522" type="curve"/>
      <point x="76" y="489"/>
      <point x="88" y="459"/>
      <point x="143" y="430" type="curve"/>
      <point x="173" y="423"/>
      <point x="243" y="411"/>
      <point x="265" y="474" type="curve"/>
      <point x="238" y="479"/>
      <point x="206" y="480"/>
      <point x="180" y="513" type="curve"/>
      <point x="168" y="526"/>
      <point x="157" y="556"/>
      <point x="155" y="602" type="curve"/>
      <point x="158" y="632"/>
      <point x="174" y="714"/>
      <point x="262" y="731" type="curve"/>
      <point x="289" y="737"/>
      <point x="357" y="739"/>
      <point x="394" y="683" type="curve"/>
      <point x="405" y="670"/>
      <point x="430" y="640"/>
      <point x="428" y="546" type="curve"/>
      <point x="428" y="535"/>
      <point x="424" y="481"/>
      <point x="386" y="401" type="curve"/>
      <point x="380" y="390"/>
      <point x="347" y="331"/>
      <point x="265" y="242" type="curve"/>
      <point x="260" y="233"/>
      <point x="220" y="185"/>
      <point x="128" y="104" type="curve"/>
      <point x="114" y="91"/>
      <point x="91" y="66"/>
      <point x="50" y="35" type="curve"/>
      <point x="50" y="19"/>
      <point x="50" y="20"/>
      <point x="51" y="0" type="curve"/>
      <point x="514" y="0" type="line"/>
      <point x="553" y="213" type="line"/>
      <point x="516" y="213" type="line"/>
      <point x="503" y="182"/>
      <point x="506" y="148"/>
      <point x="451" y="105" type="curve"/>
      <point x="418" y="93"/>
      <point x="321" y="98"/>
      <point x="196" y="98" type="curve" smooth="yes"/>
      <point x="196" y="98"/>
      <point x="195" y="102"/>
      <point x="195" y="103" type="curve"/>
      <point x="212" y="112"/>
      <point x="257" y="150"/>
      <point x="347" y="224" type="curve"/>
      <point x="393" y="267"/>
      <point x="423" y="296"/>
      <point x="498" y="401" type="curve"/>
      <point x="516" y="439"/>
      <point x="541" y="465"/>
      <point x="550" y="564" type="curve"/>
      <point x="546" y="628"/>
      <point x="520" y="694"/>
      <point x="462" y="735" type="curve"/>
      <point x="445" y="753"/>
      <point x="384" y="782"/>
    </contour>
  </outline>
</glyph>
<glyph name="three" format="2">
  <advance width="600"/>
  <unicode hex="0033"/>
  <outline>
    <contour>
      <point x="331" y="780" type="curve"/>
      <point x="268" y="782" type="line"/>
      <point x="3" y="743"/>
      <point x="71" y="561"/>
      <point x="151" y="538" type="curve" smooth="yes"/>
      <point x="187" y="528"/>
      <point x="223" y="528"/>
      <point x="251" y="569" type="curve"/>
      <point x="224" y="575" type="line"/>
      <point x="106" y="681"/>
      <point x="252" y="749"/>
      <point x="300" y="738" type="curve" smooth="yes"/>
      <point x="328" y="732"/>
      <point x="404" y="730"/>
      <point x="412" y="620" type="curve" smooth="yes"/>
      <point x="414" y="589"/>
      <point x="409" y="438"/>
      <point x="301" y="419" type="curve" smooth="yes"/>
      <point x="289" y="417"/>
      <point x="172" y="457"/>
      <point x="185" y="397" type="curve"/>
      <point x="187" y="393" type="line"/>
      <point x="234" y="345"/>
      <point x="299" y="393"/>
      <point x="305" y="390" type="curve" smooth="yes"/>
      <point x="330" y="379"/>
      <point x="430" y="385"/>
      <point x="429" y="188" type="curve" smooth="yes"/>
      <point x="429" y="84"/>
      <point x="360" y="28"/>
      <point x="271" y="38" type="curve" smooth="yes"/>
      <point x="241" y="41"/>
      <point x="156" y="75"/>
      <point x="158" y="138" type="curve" smooth="yes"/>
      <point x="159" y="180"/>
      <point x="158" y="249"/>
      <point x="245" y="248" type="curve"/>
      <point x="231" y="274" type="line"/>
      <point x="197" y="305"/>
      <point x="107" y="309"/>
      <point x="69" y="234" type="curve" smooth="yes"/>
      <point x="-29" y="42"/>
      <point x="245" y="-10"/>
      <point x="284" y="-12" type="curve" smooth="yes"/>
      <point x="477" y="-24"/>
      <point x="535" y="119"/>
      <point x="549" y="160" type="curve" smooth="yes"/>
      <point x="563" y="201"/>
      <point x="526" y="326"/>
      <point x="506" y="340" type="curve" smooth="yes"/>
      <point x="493" y="349"/>
      <point x="447" y="400"/>
      <point x="375" y="416" type="curve"/>
      <point x="400" y="422" type="line"/>
      <point x="508" y="460"/>
      <point x="530" y="556"/>
      <point x="533" y="581" type="curve" smooth="yes"/>
      <point x="543" y="671"/>
      <point x="476" y="726"/>
      <point x="474" y="727" type="curve" smooth="yes"/>
      <point x="413" y="764"/>
      <point x="432" y="759"/>
    </contour>
  </outline>
</glyph>
<glyph name="four" format="2">
  <advance width="500"/>
  <unicode hex="0034"/>
  <outline>
    <contour>
      <point x="401" y="780" type="curve"/>
      <point x="382" y="780" type="line"/>
      <point x="377" y="780"/>
      <point x="372" y="780"/>
      <point x="370" y="780" type="curve"/>
      <point x="17" y="229" type="line"/>
      <point x="18" y="216"/>
      <point x="18" y="180"/>
      <point x="18" y="180" type="curve" smooth="yes"/>
      <point x="77" y="180"/>
      <point x="238" y="182"/>
      <point x="305" y="176" type="curve" smooth="yes"/>
      <point x="307" y="176"/>
      <point x="307" y="148"/>
      <point x="305" y="125" type="curve" smooth="yes"/>
      <point x="303" y="108"/>
      <point x="324" y="36"/>
      <point x="199" y="37" type="curve" smooth="yes"/>
      <point x="197" y="37"/>
      <point x="198" y="-1"/>
      <point x="199" y="-1" type="curve" smooth="yes"/>
      <point x="326" y="1"/>
      <point x="459" y="4"/>
      <point x="482" y="2" type="curve" smooth="yes"/>
      <point x="487" y="2"/>
      <point x="480" y="37"/>
      <point x="479" y="37" type="curve" smooth="yes"/>
      <point x="457" y="43"/>
      <point x="423" y="37"/>
      <point x="409" y="71" type="curve" smooth="yes"/>
      <point x="400" y="94"/>
      <point x="400" y="149"/>
      <point x="397" y="178" type="curve" smooth="yes"/>
      <point x="396" y="188"/>
      <point x="515" y="203"/>
      <point x="493" y="95" type="curve" smooth="yes"/>
      <point x="492" y="92"/>
      <point x="529" y="89"/>
      <point x="529" y="96" type="curve" smooth="yes"/>
      <point x="530" y="170"/>
      <point x="530" y="280"/>
      <point x="529" y="317" type="curve" smooth="yes"/>
      <point x="529" y="318"/>
      <point x="506" y="318"/>
      <point x="495" y="318" type="curve" smooth="yes"/>
      <point x="493" y="318"/>
      <point x="502" y="260"/>
      <point x="472" y="240" type="curve" smooth="yes"/>
      <point x="454" y="228"/>
      <point x="401" y="226"/>
      <point x="401" y="227" type="curve" smooth="yes"/>
      <point x="402" y="262"/>
      <point x="399" y="421"/>
      <point x="400" y="438" type="curve" smooth="yes"/>
      <point x="401" y="449"/>
      <point x="401" y="670"/>
      <point x="398" y="778" type="curve"/>
      <point x="298" y="585" type="line"/>
      <point x="303" y="590"/>
      <point x="304" y="510"/>
      <point x="303" y="445" type="curve"/>
      <point x="303" y="332" type="line"/>
      <point x="304" y="317"/>
      <point x="304" y="256"/>
      <point x="303" y="229" type="curve"/>
      <point x="69" y="227" type="line"/>
      <point x="41" y="196"/>
      <point x="280" y="557"/>
      <point x="298" y="585" type="curve" smooth="yes"/>
      <point x="309" y="601"/>
      <point x="342" y="655"/>
    </contour>
  </outline>
</glyph>
<glyph name="six" format="2">
  <advance width="620"/>
  <unicode hex="0036"/>
  <outline>
    <contour>
      <point x="541" y="645" type="curve"/>
      <point x="560" y="663"/>
      <point x="557" y="686"/>
      <point x="532" y="724" type="curve"/>
      <point x="498" y="752" type="line"/>
      <point x="468" y="778"/>
      <point x="371" y="784"/>
      <point x="331" y="777" type="curve" smooth="yes"/>
      <point x="312" y="774"/>
      <point x="244" y="745"/>
      <point x="205" y="709" type="curve" smooth="yes"/>
      <point x="145" y="655"/>
      <point x="86" y="535"/>
      <point x="77" y="482" type="curve" smooth="yes"/>
      <point x="70" y="443"/>
      <point x="58" y="315"/>
      <point x="67" y="250" type="curve" smooth="yes"/>
      <point x="76" y="185"/>
      <point x="108" y="119"/>
      <point x="141" y="76" type="curve" smooth="yes"/>
      <point x="178" y="28"/>
      <point x="245" y="4"/>
      <point x="285" y="-8" type="curve" smooth="yes"/>
      <point x="330" y="-21"/>
      <point x="441" y="-4"/>
      <point x="504" y="62" type="curve" smooth="yes"/>
      <point x="553" y="113"/>
      <point x="586" y="207"/>
      <point x="588" y="244" type="curve" smooth="yes"/>
      <point x="590" y="281"/>
      <point x="564" y="374"/>
      <point x="539" y="414" type="curve" smooth="yes"/>
      <point x="514" y="454"/>
      <point x="438" y="496"/>
      <point x="396" y="506" type="curve" smooth="yes"/>
      <point x="373" y="511"/>
      <point x="261" y="530"/>
      <point x="187" y="418" type="curve"/>
      <point x="199" y="534" type="line"/>
      <point x="213" y="601"/>
      <point x="232" y="642"/>
      <point x="243" y="662" type="curve" smooth="yes"/>
      <point x="254" y="682"/>
      <point x="287" y="746"/>
      <point x="365" y="734" type="curve" smooth="yes"/>
      <point x="422" y="726"/>
      <point x="441" y="652"/>
      <point x="455" y="642" type="curve" smooth="yes"/>
      <point x="507" y="606"/>
      <point x="521" y="630"/>
    </contour>
    <contour>
      <point x="349" y="459" type="curve"/>
      <point x="389" y="460"/>
      <point x="436" y="411"/>
      <point x="453" y="351" type="curve" smooth="yes"/>
      <point x="455" y="343"/>
      <point x="462" y="246"/>
      <point x="459" y="202" type="curve" smooth="yes"/>
      <point x="456" y="159"/>
      <point x="462" y="110"/>
      <point x="393" y="53" type="curve" smooth="yes"/>
      <point x="339" y="8"/>
      <point x="250" y="53"/>
      <point x="238" y="72" type="curve" smooth="yes"/>
      <point x="226" y="91"/>
      <point x="200" y="144"/>
      <point x="194" y="176" type="curve" smooth="yes"/>
      <point x="189" y="206"/>
      <point x="177" y="311"/>
      <point x="187" y="336" type="curve" smooth="yes"/>
      <point x="197" y="361"/>
      <point x="230" y="407"/>
      <point x="248" y="423" type="curve" smooth="yes"/>
      <point x="279" y="451"/>
      <point x="302" y="462"/>
    </contour>
  </outline>
</glyph>
<glyph name="semicolon" format="2">
  <advance width="300.08054051377036"/>
  <unicode hex="003B"/>
  <outline>
    <contour>
      <point x="155" y="121" type="curve"/>
      <point x="126" y="121"/>
      <point x="87" y="94"/>
      <point x="88" y="57" type="curve" smooth="yes"/>
      <point x="89" y="20"/>
      <point x="114" y="1"/>
      <point x="131" y="-3" type="curve" smooth="yes"/>
      <point x="148" y="-7"/>
      <point x="168" y="11"/>
      <point x="169" y="3" type="curve" smooth="yes"/>
      <point x="174" y="-26"/>
      <point x="145" y="-75"/>
      <point x="139" y="-83" type="curve" smooth="yes"/>
      <point x="135" y="-88"/>
      <point x="116" y="-112"/>
      <point x="71" y="-144" type="curve"/>
      <point x="94" y="-177" type="line"/>
      <point x="124" y="-154"/>
      <point x="146" y="-133"/>
      <point x="169" y="-116" type="curve" smooth="yes"/>
      <point x="192" y="-99"/>
      <point x="216" y="-40"/>
      <point x="221" y="-27" type="curve" smooth="yes"/>
      <point x="226" y="-14"/>
      <point x="233" y="39"/>
      <point x="223" y="66" type="curve" smooth="yes"/>
      <point x="220" y="73"/>
      <point x="209" y="119"/>
    </contour>
    <contour>
      <point x="221" y="380" type="curve" smooth="yes"/>
      <point x="222" y="411"/>
      <point x="201" y="448"/>
      <point x="155" y="448" type="curve" smooth="yes"/>
      <point x="110" y="448"/>
      <point x="89" y="408"/>
      <point x="89" y="380" type="curve" smooth="yes"/>
      <point x="89" y="364"/>
      <point x="109" y="316"/>
      <point x="154" y="317" type="curve" smooth="yes"/>
      <point x="199" y="318"/>
      <point x="220" y="350"/>
    </contour>
  </outline>
</glyph>
<glyph name="less" format="2">
  <advance width="550"/>
  <unicode hex="003C"/>
  <outline>
    <contour>
      <point x="495" y="596" type="line"/>
      <point x="27" y="373" type="line"/>
      <point x="35" y="299" type="line"/>
      <point x="495" y="78" type="line"/>
      <point x="491" y="126" type="line"/>
      <point x="84" y="336" type="line"/>
      <point x="501" y="542" type="line"/>
    </contour>
  </outline>
</glyph>
<glyph name="at" format="2">
  <advance width="1000"/>
  <unicode hex="0040"/>
  <outline>
    <contour>
      <point x="788" y="530" type="curve"/>
      <point x="693" y="530" type="line"/>
      <point x="669" y="441" type="line"/>
      <point x="643" y="525"/>
      <point x="595" y="533"/>
      <point x="577" y="538" type="curve" smooth="yes"/>
      <point x="475" y="565"/>
      <point x="354" y="442"/>
      <point x="337" y="413" type="curve" smooth="yes"/>
      <point x="321" y="385"/>
      <point x="221" y="241"/>
      <point x="334" y="116" type="curve" smooth="yes"/>
      <point x="366" y="81"/>
      <point x="444" y="56"/>
      <point x="518" y="105" type="curve" smooth="yes"/>
      <point x="584" y="149"/>
      <point x="603" y="196"/>
      <point x="605" y="191" type="curve" smooth="yes"/>
      <point x="612" y="170"/>
      <point x="625" y="94"/>
      <point x="674" y="83" type="curve" smooth="yes"/>
      <point x="795" y="55"/>
      <point x="877" y="164"/>
      <point x="900" y="195" type="curve" smooth="yes"/>
      <point x="918" y="220"/>
      <point x="965" y="352"/>
      <point x="969" y="389" type="curve" smooth="yes"/>
      <point x="984" y="531"/>
      <point x="885" y="666"/>
      <point x="833" y="702" type="curve" smooth="yes"/>
      <point x="762" y="752"/>
      <point x="694" y="771"/>
      <point x="574" y="779" type="curve" smooth="yes"/>
      <point x="511" y="783"/>
      <point x="421" y="766"/>
      <point x="348" y="735" type="curve" smooth="yes"/>
      <point x="268" y="701"/>
      <point x="201" y="651"/>
      <point x="152" y="588" type="curve" smooth="yes"/>
      <point x="108" y="532"/>
      <point x="55" y="443"/>
      <point x="52" y="327" type="curve" smooth="yes"/>
      <point x="48" y="140"/>
      <point x="121" y="56"/>
      <point x="197" y="-20" type="curve" smooth="yes"/>
      <point x="233" y="-55"/>
      <point x="367" y="-129"/>
      <point x="503" y="-135" type="curve" smooth="yes"/>
      <point x="598" y="-139"/>
      <point x="722" y="-130"/>
      <point x="886" y="-18" type="curve"/>
      <point x="867" y="15" type="line"/>
      <point x="825" y="-12" type="line"/>
      <point x="741" y="-68"/>
      <point x="561" y="-107"/>
      <point x="448" y="-77" type="curve" smooth="yes"/>
      <point x="422" y="-70"/>
      <point x="301" y="-41"/>
      <point x="246" y="23" type="curve" smooth="yes"/>
      <point x="191" y="86"/>
      <point x="131" y="181"/>
      <point x="142" y="336" type="curve" smooth="yes"/>
      <point x="144" y="359"/>
      <point x="179" y="497"/>
      <point x="223" y="558" type="curve" smooth="yes"/>
      <point x="262" y="612"/>
      <point x="323" y="663"/>
      <point x="375" y="690" type="curve" smooth="yes"/>
      <point x="426" y="717"/>
      <point x="480" y="733"/>
      <point x="559" y="736" type="curve" smooth="yes"/>
      <point x="662" y="740"/>
      <point x="723" y="717"/>
      <point x="805" y="658" type="curve" smooth="yes"/>
      <point x="870" y="612"/>
      <point x="913" y="552"/>
      <point x="920" y="419" type="curve" smooth="yes"/>
      <point x="925" y="322"/>
      <point x="879" y="249"/>
      <point x="871" y="230" type="curve" smooth="yes"/>
      <point x="863" y="211"/>
      <point x="793" y="133"/>
      <point x="760" y="130" type="curve" smooth="yes"/>
      <point x="729" y="128"/>
      <point x="662" y="110"/>
      <point x="718" y="277" type="curve" smooth="yes"/>
      <point x="723" y="293"/>
      <point x="746" y="378"/>
    </contour>
    <contour>
      <point x="560" y="498" type="curve"/>
      <point x="663" y="489"/>
      <point x="628" y="339"/>
      <point x="622" y="314" type="curve" smooth="yes"/>
      <point x="590" y="188"/>
      <point x="473" y="102"/>
      <point x="427" y="124" type="curve" smooth="yes"/>
      <point x="361" y="155"/>
      <point x="382" y="268"/>
      <point x="395" y="318" type="curve" smooth="yes"/>
      <point x="403" y="351"/>
      <point x="470" y="504"/>
    </contour>
  </outline>
</glyph>
<glyph name="G" format="2">
  <advance width="850"/>
  <unicode hex="0047"/>
  <outline>
    <contour>
      <point x="714" y="539" type="line"/>
      <point x="718" y="601" type="line"/>
      <point x="721" y="658" type="line"/>
      <point x="727" y="770" type="line"/>
      <point x="692" y="770" type="line"/>
      <point x="684" y="747" type="line"/>
      <point x="671" y="709" type="line"/>
      <point x="622" y="736" type="line"/>
      <point x="572" y="756" type="line"/>
      <point x="527" y="771" type="line"/>
      <point x="458" y="780" type="line"/>
      <point x="378" y="777" type="line"/>
      <point x="305" y="756" type="line"/>
      <point x="240" y="728" type="line"/>
      <point x="195" y="695" type="line"/>
      <point x="168" y="667" type="line"/>
      <point x="123" y="611" type="line"/>
      <point x="90" y="548" type="line"/>
      <point x="71" y="488" type="line"/>
      <point x="62" y="425" type="line"/>
      <point x="58" y="362" type="line"/>
      <point x="64" y="306" type="line"/>
      <point x="82" y="217" type="line"/>
      <point x="105" y="167" type="line"/>
      <point x="132" y="125" type="line"/>
      <point x="150" y="100" type="line"/>
      <point x="177" y="75" type="line"/>
      <point x="225" y="42" type="line"/>
      <point x="283" y="14" type="line"/>
      <point x="341" y="-5" type="line"/>
      <point x="409" y="-12" type="line"/>
      <point x="460" y="-9" type="line"/>
      <point x="515" y="-3" type="line"/>
      <point x="553" y="9" type="line"/>
      <point x="601" y="30" type="line"/>
      <point x="632" y="47" type="line"/>
      <point x="673" y="68" type="line"/>
      <point x="708" y="79" type="line"/>
      <point x="761" y="83" type="line"/>
      <point x="761" y="117" type="line"/>
      <point x="761" y="156" type="line"/>
      <point x="761" y="199" type="line"/>
      <point x="763" y="230" type="line"/>
      <point x="772" y="260" type="line"/>
      <point x="791" y="277" type="line"/>
      <point x="822" y="284" type="line"/>
      <point x="843" y="284" type="line"/>
      <point x="843" y="322" type="line"/>
      <point x="559" y="322" type="line"/>
      <point x="559" y="285" type="line"/>
      <point x="578" y="284" type="line"/>
      <point x="604" y="278" type="line"/>
      <point x="631" y="268" type="line"/>
      <point x="651" y="241" type="line"/>
      <point x="661" y="207" type="line"/>
      <point x="663" y="176" type="line"/>
      <point x="655" y="141" type="line"/>
      <point x="639" y="113" type="line"/>
      <point x="624" y="97" type="line"/>
      <point x="600" y="82" type="line"/>
      <point x="561" y="62" type="line"/>
      <point x="514" y="48" type="line"/>
      <point x="466" y="46" type="line"/>
      <point x="411" y="44" type="line"/>
      <point x="343" y="64" type="line"/>
      <point x="311" y="86" type="line"/>
      <point x="280" y="109" type="line"/>
      <point x="254" y="141" type="line"/>
      <point x="238" y="164" type="line"/>
      <point x="219" y="197" type="line"/>
      <point x="207" y="231" type="line"/>
      <point x="201" y="268" type="line"/>
      <point x="197" y="310" type="line"/>
      <point x="195" y="352" type="line"/>
      <point x="194" y="382" type="line"/>
      <point x="195" y="428" type="line"/>
      <point x="200" y="466" type="line"/>
      <point x="206" y="502" type="line"/>
      <point x="216" y="542" type="line"/>
      <point x="229" y="576" type="line"/>
      <point x="243" y="606" type="line"/>
      <point x="266" y="641" type="line"/>
      <point x="290" y="668" type="line"/>
      <point x="309" y="683" type="line"/>
      <point x="344" y="705" type="line"/>
      <point x="373" y="717" type="line"/>
      <point x="410" y="725" type="line"/>
      <point x="439" y="728" type="line"/>
      <point x="476" y="727" type="line"/>
      <point x="508" y="723" type="line"/>
      <point x="540" y="714" type="line"/>
      <point x="572" y="701" type="line"/>
      <point x="604" y="679" type="line"/>
      <point x="629" y="652" type="line"/>
      <point x="650" y="620" type="line"/>
      <point x="661" y="588" type="line"/>
      <point x="666" y="540" type="line"/>
    </contour>
  </outline>
</glyph>
<glyph name="N" format="2">
  <advance width="900"/>
  <unicode hex="004E"/>
  <outline>
    <contour>
      <point x="254" y="770" type="line"/>
      <point x="237" y="770" type="line"/>
      <point x="216" y="770" type="line"/>
      <point x="195" y="770" type="line"/>
      <point x="166" y="770" type="line"/>
      <point x="138" y="770" type="line"/>
      <point x="110" y="770" type="line"/>
      <point x="84" y="770" type="line"/>
      <point x="55" y="770" type="line"/>
      <point x="55" y="732" type="line"/>
      <point x="67" y="731" type="line"/>
      <point x="83" y="729" type="line"/>
      <point x="98" y="726" type="line"/>
      <point x="108" y="723" type="line"/>
      <point x="124" y="715"/>
      <point x="157" y="716"/>
      <point x="155" y="584" type="curve"/>
      <point x="155" y="460" type="line"/>
      <point x="155" y="312" type="line"/>
      <point x="155" y="256" type="line"/>
      <point x="156" y="190" type="line"/>
      <point x="154" y="129" type="line"/>
      <point x="148" y="94" type="line"/>
      <point x="140" y="72" type="line"/>
      <point x="125" y="55" type="line"/>
      <point x="102" y="44" type="line"/>
      <point x="72" y="40" type="line"/>
      <point x="45" y="37" type="line"/>
      <point x="45" y="1" type="line"/>
      <point x="192" y="0" type="line"/>
      <point x="314" y="0" type="line"/>
      <point x="314" y="38" type="line"/>
      <point x="290" y="39" type="line"/>
      <point x="260" y="44" type="line"/>
      <point x="245" y="52" type="line"/>
      <point x="235" y="61" type="line"/>
      <point x="227" y="75" type="line"/>
      <point x="222" y="90" type="line"/>
      <point x="218" y="112" type="line"/>
      <point x="216" y="171" type="line"/>
      <point x="215" y="485" type="line"/>
      <point x="215" y="530" type="line"/>
      <point x="215" y="616" type="line"/>
      <point x="219" y="616" type="line"/>
      <point x="280" y="535" type="line"/>
      <point x="310" y="496" type="line"/>
      <point x="327" y="473" type="line"/>
      <point x="340" y="457" type="line"/>
      <point x="353" y="440" type="line"/>
      <point x="375" y="412" type="line"/>
      <point x="400" y="375" type="line"/>
      <point x="452" y="309" type="line"/>
      <point x="473" y="282" type="line"/>
      <point x="498" y="247" type="line"/>
      <point x="530" y="207" type="line"/>
      <point x="562" y="164" type="line"/>
      <point x="589" y="132" type="line"/>
      <point x="615" y="95" type="line"/>
      <point x="642" y="59" type="line"/>
      <point x="671" y="20" type="line"/>
      <point x="694" y="-11" type="line"/>
      <point x="755" y="-11" type="line"/>
      <point x="755" y="45" type="line"/>
      <point x="754" y="151" type="line"/>
      <point x="754" y="234" type="line"/>
      <point x="754" y="256" type="line"/>
      <point x="755" y="288" type="line"/>
      <point x="754" y="320" type="line"/>
      <point x="755" y="351" type="line"/>
      <point x="754" y="404" type="line"/>
      <point x="754" y="458" type="line"/>
      <point x="753" y="506" type="line"/>
      <point x="754" y="611" type="line"/>
      <point x="759" y="669" type="line"/>
      <point x="768" y="699" type="line"/>
      <point x="780" y="713" type="line"/>
      <point x="800" y="723" type="line"/>
      <point x="818" y="727" type="line"/>
      <point x="839" y="731" type="line"/>
      <point x="864" y="732" type="line"/>
      <point x="863" y="770" type="line"/>
      <point x="594" y="770" type="line"/>
      <point x="595" y="732" type="line"/>
      <point x="638" y="728" type="line"/>
      <point x="666" y="718" type="line"/>
      <point x="681" y="699" type="line"/>
      <point x="688" y="672" type="line"/>
      <point x="694" y="630" type="line"/>
      <point x="694" y="423" type="line"/>
      <point x="694" y="186" type="line"/>
      <point x="688" y="186" type="line"/>
      <point x="579" y="335" type="line"/>
    </contour>
  </outline>
</glyph>
<glyph name="Q" format="2">
  <advance width="950"/>
  <unicode hex="0051"/>
  <outline>
    <contour>
      <point x="475" y="783" type="line"/>
      <point x="434" y="782" type="line"/>
      <point x="395" y="777" type="line"/>
      <point x="349" y="764" type="line"/>
      <point x="311" y="751" type="line"/>
      <point x="272" y="733" type="line"/>
      <point x="221" y="708" type="line"/>
      <point x="179" y="667" type="line"/>
      <point x="145" y="632" type="line"/>
      <point x="107" y="582" type="line"/>
      <point x="89" y="540" type="line"/>
      <point x="69" y="484" type="line"/>
      <point x="62" y="429" type="line"/>
      <point x="56" y="373" type="line"/>
      <point x="63" y="312" type="line"/>
      <point x="76" y="250" type="line"/>
      <point x="91" y="205" type="line"/>
      <point x="111" y="164" type="line"/>
      <point x="141" y="123" type="line"/>
      <point x="169" y="93" type="line"/>
      <point x="201" y="67" type="line"/>
      <point x="243" y="31" type="line"/>
      <point x="293" y="9" type="line"/>
      <point x="331" y="-9" type="line"/>
      <point x="375" y="-21" type="line"/>
      <point x="416" y="-25" type="line"/>
      <point x="441" y="-28" type="line"/>
      <point x="406" y="-51" type="line"/>
      <point x="360" y="-78" type="line"/>
      <point x="315" y="-103" type="line"/>
      <point x="289" y="-120" type="line"/>
      <point x="262" y="-138" type="line"/>
      <point x="253" y="-167" type="line"/>
      <point x="272" y="-191" type="line"/>
      <point x="303" y="-186" type="line"/>
      <point x="324" y="-167" type="line"/>
      <point x="347" y="-148" type="line"/>
      <point x="368" y="-132" type="line"/>
      <point x="391" y="-125" type="line"/>
      <point x="414" y="-123" type="line"/>
      <point x="439" y="-122" type="line"/>
      <point x="460" y="-138" type="line"/>
      <point x="491" y="-151" type="line"/>
      <point x="524" y="-169" type="line"/>
      <point x="549" y="-183" type="line"/>
      <point x="574" y="-198" type="line"/>
      <point x="608" y="-217" type="line"/>
      <point x="646" y="-236" type="line"/>
      <point x="690" y="-249" type="line"/>
      <point x="734" y="-261" type="line"/>
      <point x="776" y="-259" type="line"/>
      <point x="819" y="-255" type="line"/>
      <point x="854" y="-237" type="line"/>
      <point x="883" y="-221" type="line"/>
      <point x="901" y="-201" type="line"/>
      <point x="912" y="-182" type="line"/>
      <point x="927" y="-157" type="line"/>
      <point x="933" y="-131" type="line"/>
      <point x="931" y="-101" type="line"/>
      <point x="927" y="-72" type="line"/>
      <point x="905" y="-68" type="line"/>
      <point x="892" y="-100" type="line"/>
      <point x="874" y="-128" type="line"/>
      <point x="852" y="-152" type="line"/>
      <point x="820" y="-158" type="line"/>
      <point x="786" y="-161" type="line"/>
      <point x="756" y="-157" type="line"/>
      <point x="728" y="-154" type="line"/>
      <point x="710" y="-147" type="line"/>
      <point x="681" y="-138" type="line"/>
      <point x="652" y="-129" type="line"/>
      <point x="618" y="-116" type="line"/>
      <point x="587" y="-107" type="line"/>
      <point x="561" y="-97" type="line"/>
      <point x="530" y="-88" type="line"/>
      <point x="513" y="-88" type="line"/>
      <point x="485" y="-88" type="line"/>
      <point x="445" y="-88" type="line"/>
      <point x="454" y="-79" type="line"/>
      <point x="476" y="-66" type="line"/>
      <point x="502" y="-54" type="line"/>
      <point x="533" y="-40" type="line"/>
      <point x="565" y="-28" type="line"/>
      <point x="597" y="-13" type="line"/>
      <point x="636" y="1" type="line"/>
      <point x="674" y="20" type="line"/>
      <point x="704" y="39" type="line"/>
      <point x="735" y="60" type="line"/>
      <point x="757" y="80" type="line"/>
      <point x="785" y="104" type="line"/>
      <point x="805" y="129" type="line"/>
      <point x="819" y="151" type="line"/>
      <point x="839" y="183" type="line"/>
      <point x="857" y="211" type="line"/>
      <point x="870" y="247" type="line"/>
      <point x="881" y="288" type="line"/>
      <point x="886" y="328" type="line"/>
      <point x="887" y="369" type="line"/>
      <point x="886" y="421" type="line"/>
      <point x="886" y="457" type="line"/>
      <point x="874" y="490" type="line"/>
      <point x="858" y="530" type="line"/>
      <point x="843" y="565" type="line"/>
      <point x="823" y="600" type="line"/>
      <point x="798" y="637" type="line"/>
      <point x="775" y="660" type="line"/>
      <point x="757" y="681" type="line"/>
      <point x="732" y="697" type="line"/>
      <point x="704" y="720" type="line"/>
      <point x="682" y="730" type="line"/>
      <point x="652" y="741" type="line"/>
      <point x="625" y="755" type="line"/>
      <point x="595" y="767" type="line"/>
      <point x="561" y="774" type="line"/>
      <point x="524" y="780" type="line"/>
    </contour>
    <contour>
      <point x="473" y="723" type="line"/>
      <point x="517" y="720" type="line"/>
      <point x="559" y="713" type="line"/>
      <point x="584" y="698" type="line"/>
      <point x="628" y="681" type="line"/>
      <point x="662" y="654" type="line"/>
      <point x="682" y="626" type="line"/>
      <point x="700" y="606" type="line"/>
      <point x="709" y="585" type="line"/>
      <point x="719" y="562" type="line"/>
      <point x="729" y="541" type="line"/>
      <point x="735" y="524" type="line"/>
      <point x="742" y="492" type="line"/>
      <point x="751" y="452" type="line"/>
      <point x="761" y="417" type="line"/>
      <point x="760" y="379" type="line"/>
      <point x="760" y="347" type="line"/>
      <point x="757" y="312" type="line"/>
      <point x="757" y="307"/>
      <point x="756" y="277"/>
      <point x="753" y="263" type="curve" smooth="yes"/>
      <point x="751" y="254"/>
      <point x="746" y="239"/>
      <point x="737" y="219" type="curve"/>
      <point x="723" y="174" type="line"/>
      <point x="700" y="139" type="line"/>
      <point x="668" y="104" type="line"/>
      <point x="634" y="74" type="line"/>
      <point x="600" y="45" type="line"/>
      <point x="558" y="29" type="line"/>
      <point x="515" y="19" type="line"/>
      <point x="466" y="20" type="line"/>
      <point x="423" y="25" type="line"/>
      <point x="390" y="33" type="line"/>
      <point x="353" y="48" type="line"/>
      <point x="311" y="73" type="line"/>
      <point x="281" y="104" type="line"/>
      <point x="255" y="130" type="line"/>
      <point x="233" y="161" type="line"/>
      <point x="221" y="200" type="line"/>
      <point x="205" y="237" type="line"/>
      <point x="201" y="271" type="line"/>
      <point x="190" y="303" type="line"/>
      <point x="186" y="336" type="line"/>
      <point x="186" y="364" type="line"/>
      <point x="190" y="405" type="line"/>
      <point x="190" y="430" type="line"/>
      <point x="193" y="462" type="line"/>
      <point x="201" y="503" type="line"/>
      <point x="210" y="541" type="line"/>
      <point x="221" y="565" type="line"/>
      <point x="243" y="591" type="line"/>
      <point x="262" y="628" type="line"/>
      <point x="281" y="650" type="line"/>
      <point x="312" y="672" type="line"/>
      <point x="350" y="694" type="line"/>
      <point x="397" y="717" type="line"/>
      <point x="422" y="726" type="line"/>
    </contour>
  </outline>
</glyph>
<glyph name="R" format="2">
  <advance width="850"/>
  <unicode hex="0052"/>
  <outline>
    <contour>
      <point x="130" y="716" type="line"/>
      <point x="138" y="708" type="line"/>
      <point x="146" y="695" type="line"/>
      <point x="151" y="679" type="line"/>
      <point x="155" y="638" type="line"/>
      <point x="155" y="607" type="line"/>
      <point x="155" y="572" type="line"/>
      <point x="155" y="516" type="line"/>
      <point x="155" y="495" type="line"/>
      <point x="155" y="426" type="line"/>
      <point x="156" y="380" type="line"/>
      <point x="156" y="373"/>
      <point x="157" y="212"/>
      <point x="155" y="186" type="curve"/>
      <point x="151" y="93" type="line"/>
      <point x="141" y="67" type="line"/>
      <point x="124" y="52" type="line"/>
      <point x="102" y="44" type="line"/>
      <point x="77" y="40" type="line"/>
      <point x="52" y="38" type="line"/>
      <point x="45" y="38" type="line"/>
      <point x="45" y="0" type="line"/>
      <point x="402" y="-1" type="line"/>
      <point x="400" y="35" type="line"/>
      <point x="375" y="39" type="line"/>
      <point x="353" y="40" type="line"/>
      <point x="332" y="40" type="line"/>
      <point x="310" y="45" type="line"/>
      <point x="289" y="56" type="line"/>
      <point x="271" y="77" type="line"/>
      <point x="263" y="101" type="line"/>
      <point x="262" y="135" type="line"/>
      <point x="259" y="183" type="line"/>
      <point x="260" y="241" type="line"/>
      <point x="260" y="278" type="line"/>
      <point x="260" y="308" type="line"/>
      <point x="260" y="334" type="line"/>
      <point x="261" y="365" type="line"/>
      <point x="260" y="414" type="line"/>
      <point x="260" y="511" type="line"/>
      <point x="260" y="573" type="line"/>
      <point x="260" y="688" type="line"/>
      <point x="260" y="708" type="line"/>
      <point x="264" y="719" type="line"/>
      <point x="275" y="723" type="line"/>
      <point x="383" y="723" type="line"/>
      <point x="419" y="720" type="line"/>
      <point x="449" y="713" type="line"/>
      <point x="480" y="697" type="line"/>
      <point x="506" y="674" type="line"/>
      <point x="526" y="618" type="line"/>
      <point x="528" y="550" type="line"/>
      <point x="520" y="506" type="line"/>
      <point x="500" y="471" type="line"/>
      <point x="474" y="447" type="line"/>
      <point x="451" y="435" type="line"/>
      <point x="422" y="425" type="line"/>
      <point x="396" y="420" type="line"/>
      <point x="363" y="416" type="line"/>
      <point x="331" y="415" type="line"/>
      <point x="260" y="414" type="line"/>
      <point x="261" y="365" type="line"/>
      <point x="278" y="365" type="line"/>
      <point x="347" y="358"/>
      <point x="348" y="357"/>
      <point x="418" y="263" type="curve"/>
      <point x="477" y="188" type="line"/>
      <point x="518" y="132" type="line"/>
      <point x="556" y="83" type="line"/>
      <point x="622" y="0" type="line"/>
      <point x="697" y="0" type="line"/>
      <point x="816" y="0" type="line"/>
      <point x="814" y="37" type="line"/>
      <point x="767" y="48" type="line"/>
      <point x="731" y="63" type="line"/>
      <point x="705" y="78" type="line"/>
      <point x="676" y="108" type="line"/>
      <point x="643" y="149" type="line"/>
      <point x="614" y="184" type="line"/>
      <point x="582" y="223" type="line"/>
      <point x="557" y="253" type="line"/>
      <point x="512" y="307" type="line"/>
      <point x="457" y="373" type="line"/>
      <point x="467" y="375" type="line"/>
      <point x="486" y="379" type="line"/>
      <point x="524" y="390" type="line"/>
      <point x="560" y="406" type="line"/>
      <point x="597" y="430" type="line"/>
      <point x="618" y="452" type="line"/>
      <point x="635" y="477" type="line"/>
      <point x="648" y="509" type="line"/>
      <point x="656" y="543" type="line"/>
      <point x="658" y="570" type="line"/>
      <point x="658" y="586" type="line"/>
      <point x="656" y="604" type="line"/>
      <point x="651" y="629" type="line"/>
      <point x="645" y="645" type="line"/>
      <point x="637" y="662" type="line"/>
      <point x="625" y="680" type="line"/>
      <point x="612" y="695" type="line"/>
      <point x="595" y="710" type="line"/>
      <point x="579" y="722" type="line"/>
      <point x="561" y="732" type="line"/>
      <point x="544" y="740" type="line"/>
      <point x="519" y="750" type="line"/>
      <point x="477" y="761" type="line"/>
      <point x="435" y="767" type="line"/>
      <point x="405" y="769" type="line"/>
      <point x="305" y="770" type="line"/>
      <point x="55" y="770" type="line"/>
      <point x="55" y="732" type="line"/>
      <point x="89" y="728" type="line"/>
      <point x="111" y="724" type="line"/>
    </contour>
  </outline>
</glyph>
<glyph name="S" format="2">
  <advance width="650"/>
  <unicode hex="0053"/>
  <outline>
    <contour>
      <point x="533" y="567" type="line"/>
      <point x="529" y="635" type="line"/>
      <point x="526" y="698" type="line"/>
      <point x="522" y="766" type="line"/>
      <point x="499" y="766" type="line"/>
      <point x="473" y="721" type="line"/>
      <point x="438" y="746" type="line"/>
      <point x="404" y="763" type="line"/>
      <point x="358" y="777" type="line"/>
      <point x="313" y="780" type="line"/>
      <point x="258" y="775" type="line"/>
      <point x="217" y="762" type="line"/>
      <point x="183" y="744" type="line"/>
      <point x="145" y="712" type="line"/>
      <point x="115" y="672" type="line"/>
      <point x="96" y="624" type="line"/>
      <point x="90" y="576" type="line"/>
      <point x="95" y="514" type="line"/>
      <point x="116" y="467" type="line"/>
      <point x="143" y="433" type="line"/>
      <point x="198" y="391" type="line"/>
      <point x="262" y="357" type="line"/>
      <point x="314" y="333" type="line"/>
      <point x="355" y="314" type="line"/>
      <point x="400" y="293" type="line"/>
      <point x="430" y="272" type="line"/>
      <point x="458" y="246" type="line"/>
      <point x="478" y="205" type="line"/>
      <point x="482" y="162" type="line"/>
      <point x="472" y="118" type="line"/>
      <point x="451" y="87" type="line"/>
      <point x="424" y="66" type="line"/>
      <point x="388" y="48" type="line"/>
      <point x="345" y="41" type="line"/>
      <point x="312" y="40" type="line"/>
      <point x="269" y="46" type="line"/>
      <point x="231" y="58" type="line"/>
      <point x="180" y="86" type="line"/>
      <point x="153" y="110" type="line"/>
      <point x="123" y="152" type="line"/>
      <point x="106" y="185" type="line"/>
      <point x="95" y="235" type="line"/>
      <point x="59" y="235" type="line"/>
      <point x="63" y="162" type="line"/>
      <point x="68" y="83" type="line"/>
      <point x="73" y="11" type="line"/>
      <point x="96" y="11" type="line"/>
      <point x="124" y="60" type="line"/>
      <point x="152" y="39" type="line"/>
      <point x="194" y="15" type="line"/>
      <point x="221" y="4" type="line"/>
      <point x="252" y="-4" type="line"/>
      <point x="300" y="-9" type="line"/>
      <point x="350" y="-10" type="line"/>
      <point x="379" y="-6" type="line"/>
      <point x="413" y="2" type="line"/>
      <point x="450" y="14" type="line"/>
      <point x="471" y="24" type="line"/>
      <point x="500" y="42" type="line"/>
      <point x="521" y="57" type="line"/>
      <point x="540" y="76" type="line"/>
      <point x="561" y="104" type="line"/>
      <point x="577" y="136" type="line"/>
      <point x="586" y="167" type="line"/>
      <point x="591" y="199" type="line"/>
      <point x="591" y="228" type="line"/>
      <point x="587" y="259" type="line"/>
      <point x="578" y="289" type="line"/>
      <point x="569" y="309" type="line"/>
      <point x="550" y="335" type="line"/>
      <point x="530" y="355" type="line"/>
      <point x="504" y="376" type="line"/>
      <point x="469" y="398" type="line"/>
      <point x="432" y="420" type="line"/>
      <point x="399" y="438" type="line"/>
      <point x="371" y="451" type="line"/>
      <point x="337" y="465" type="line"/>
      <point x="301" y="483" type="line"/>
      <point x="270" y="500" type="line"/>
      <point x="231" y="526" type="line"/>
      <point x="207" y="548" type="line"/>
      <point x="190" y="579" type="line"/>
      <point x="184" y="614" type="line"/>
      <point x="187" y="645" type="line"/>
      <point x="194" y="666" type="line"/>
      <point x="206" y="685" type="line"/>
      <point x="225" y="703" type="line"/>
      <point x="248" y="716" type="line"/>
      <point x="272" y="724" type="line"/>
      <point x="296" y="728" type="line"/>
      <point x="334" y="728" type="line"/>
      <point x="363" y="723" type="line"/>
      <point x="386" y="715" type="line"/>
      <point x="407" y="704" type="line"/>
      <point x="421" y="694" type="line"/>
      <point x="433" y="683" type="line"/>
      <point x="446" y="668" type="line"/>
      <point x="458" y="653" type="line"/>
      <point x="466" y="640" type="line"/>
      <point x="479" y="615" type="line"/>
      <point x="489" y="587" type="line"/>
      <point x="496" y="567" type="line"/>
    </contour>
  </outline>
</glyph>
<glyph name="T" format="2">
  <advance width="800"/>
  <unicode hex="0054"/>
  <outline>
    <contour>
      <point x="775" y="769" type="curve"/>
      <point x="565" y="772"/>
      <point x="343" y="770"/>
      <point x="21" y="769" type="curve"/>
      <point x="18" y="764"/>
      <point x="23" y="673"/>
      <point x="20" y="632" type="curve"/>
      <point x="21" y="577" type="line"/>
      <point x="58" y="577" type="line"/>
      <point x="71" y="744"/>
      <point x="167" y="725"/>
      <point x="218" y="725" type="curve"/>
      <point x="292" y="726"/>
      <point x="347" y="741"/>
      <point x="344" y="679" type="curve"/>
      <point x="343" y="516" type="line"/>
      <point x="343" y="366" type="line"/>
      <point x="342" y="265" type="line"/>
      <point x="342" y="165" type="line"/>
      <point x="342" y="157" type="line"/>
      <point x="339" y="128"/>
      <point x="340" y="94"/>
      <point x="320" y="70" type="curve" smooth="yes"/>
      <point x="303" y="50"/>
      <point x="272" y="37"/>
      <point x="212" y="38" type="curve"/>
      <point x="212" y="16"/>
      <point x="211" y="12"/>
      <point x="212" y="0" type="curve"/>
      <point x="590" y="0" type="line"/>
      <point x="590" y="20" type="line"/>
      <point x="590" y="38" type="line"/>
      <point x="565" y="39"/>
      <point x="465" y="33"/>
      <point x="462" y="128" type="curve"/>
      <point x="461" y="177" type="line"/>
      <point x="462" y="198"/>
      <point x="461" y="305"/>
      <point x="461" y="393" type="curve" smooth="yes"/>
      <point x="460" y="458"/>
      <point x="460" y="514"/>
      <point x="460" y="515" type="curve"/>
      <point x="460" y="629" type="line"/>
      <point x="460" y="704" type="line"/>
      <point x="474" y="728"/>
      <point x="522" y="731"/>
      <point x="626" y="724" type="curve"/>
      <point x="641" y="718"/>
      <point x="738" y="726"/>
      <point x="745" y="579" type="curve"/>
      <point x="785" y="581" type="line"/>
      <point x="784" y="611"/>
      <point x="780" y="681"/>
    </contour>
  </outline>
</glyph>
<glyph name="X" format="2">
  <advance width="850"/>
  <unicode hex="0058"/>
  <outline>
    <contour>
      <point x="360" y="769" type="line"/>
      <point x="28" y="770" type="line"/>
      <point x="29" y="761"/>
      <point x="27" y="748"/>
      <point x="27" y="732" type="curve"/>
      <point x="134" y="727"/>
      <point x="160" y="672"/>
      <point x="234" y="564" type="curve"/>
      <point x="255" y="538"/>
      <point x="358" y="400"/>
      <point x="359" y="389" type="curve" smooth="yes"/>
      <point x="361" y="373"/>
      <point x="196" y="179"/>
      <point x="183" y="163" type="curve" smooth="yes"/>
      <point x="90" y="45"/>
      <point x="64" y="38"/>
      <point x="3" y="39" type="curve" smooth="yes"/>
      <point x="1" y="39"/>
      <point x="1" y="1"/>
      <point x="1" y="1" type="curve" smooth="yes"/>
      <point x="68" y="0"/>
      <point x="272" y="0"/>
      <point x="280" y="0" type="curve" smooth="yes"/>
      <point x="281" y="0"/>
      <point x="281" y="39"/>
      <point x="280" y="39" type="curve" smooth="yes"/>
      <point x="169" y="31"/>
      <point x="191" y="72"/>
      <point x="236" y="139" type="curve" smooth="yes"/>
      <point x="240" y="145"/>
      <point x="287" y="213"/>
      <point x="394" y="341" type="curve"/>
      <point x="534" y="132" type="line"/>
      <point x="541" y="125"/>
      <point x="614" y="25"/>
      <point x="481" y="38" type="curve" smooth="yes"/>
      <point x="480" y="38"/>
      <point x="481" y="0"/>
      <point x="482" y="0" type="curve" smooth="yes"/>
      <point x="492" y="0"/>
      <point x="812" y="0"/>
      <point x="822" y="0" type="curve" smooth="yes"/>
      <point x="823" y="0"/>
      <point x="823" y="37"/>
      <point x="822" y="37" type="curve" smooth="yes"/>
      <point x="737" y="44"/>
      <point x="696" y="109"/>
      <point x="687" y="120" type="curve" smooth="yes"/>
      <point x="671" y="139"/>
      <point x="602" y="226"/>
      <point x="465" y="421" type="curve"/>
      <point x="474" y="435"/>
      <point x="646" y="652"/>
      <point x="650" y="659" type="curve" smooth="yes"/>
      <point x="701" y="739"/>
      <point x="750" y="730"/>
      <point x="780" y="732" type="curve" smooth="yes"/>
      <point x="780" y="732"/>
      <point x="780" y="770"/>
      <point x="780" y="770" type="curve" smooth="yes"/>
      <point x="733" y="770"/>
      <point x="546" y="770"/>
      <point x="505" y="770" type="curve" smooth="yes"/>
      <point x="505" y="770"/>
      <point x="505" y="733"/>
      <point x="505" y="733" type="curve" smooth="yes"/>
      <point x="606" y="733"/>
      <point x="581" y="679"/>
      <point x="567" y="641" type="curve" smooth="yes"/>
      <point x="566" y="637"/>
      <point x="440" y="476"/>
      <point x="432" y="465" type="curve" smooth="yes"/>
      <point x="430" y="462"/>
      <point x="323" y="626"/>
      <point x="314" y="638" type="curve" smooth="yes"/>
      <point x="310" y="644"/>
      <point x="256" y="736"/>
      <point x="360" y="732" type="curve"/>
    </contour>
  </outline>
</glyph>
<glyph name="bracketleft" format="2">
  <advance width="500"/>
  <unicode hex="005B"/>
  <outline>
    <contour>
      <point x="347" y="820" type="line"/>
      <point x="107" y="820" type="line"/>
      <point x="107" y="-150" type="line"/>
      <point x="348" y="-150" type="line"/>
      <point x="348" y="-104" type="line"/>
      <point x="197" y="-103" type="line"/>
      <point x="197" y="773" type="line"/>
      <point x="348" y="774" type="line"/>
    </contour>
  </outline>
</glyph>
<glyph name="bracketright" format="2">
  <advance width="500"/>
  <unicode hex="005D"/>
  <outline>
    <contour>
      <point x="108" y="-150" type="line"/>
      <point x="348" y="-150" type="line"/>
      <point x="348" y="820" type="line"/>
      <point x="107" y="820" type="line"/>
      <point x="107" y="774" type="line"/>
      <point x="258" y="773" type="line"/>
      <point x="258" y="-103" type="line"/>
      <point x="107" y="-104" type="line"/>
    </contour>
  </outline>
</glyph>
<glyph name="asciicircum" format="2">
  <advance width="500"/>
  <unicode hex="005E"/>
  <outline>
    <contour>
      <point x="250" y="409" type="curve"/>
      <point x="267" y="409"/>
      <point x="279" y="409"/>
      <point x="285" y="409" type="curve" smooth="yes"/>
      <point x="285" y="409"/>
      <point x="401" y="234"/>
      <point x="404" y="230" type="curve" smooth="yes"/>
      <point x="404" y="230"/>
      <point x="398" y="230"/>
      <point x="394" y="230" type="curve" smooth="yes"/>
      <point x="386" y="230"/>
      <point x="388" y="230"/>
      <point x="377" y="230" type="curve"/>
      <point x="369" y="230"/>
      <point x="359" y="230"/>
      <point x="359" y="230" type="curve" smooth="yes"/>
      <point x="334" y="255"/>
      <point x="291" y="297"/>
      <point x="240" y="348" type="curve"/>
      <point x="121" y="230" type="line"/>
      <point x="115" y="230"/>
      <point x="112" y="230"/>
      <point x="105" y="230" type="curve" smooth="yes"/>
      <point x="98" y="230"/>
      <point x="97" y="230"/>
      <point x="89" y="230" type="curve" smooth="yes"/>
      <point x="83" y="230"/>
      <point x="76" y="230"/>
      <point x="76" y="230" type="curve" smooth="yes"/>
      <point x="79" y="235"/>
      <point x="132" y="314"/>
      <point x="194" y="408" type="curve"/>
      <point x="208" y="409"/>
      <point x="218" y="409"/>
      <point x="222" y="409" type="curve" smooth="yes"/>
      <point x="225" y="409"/>
      <point x="230" y="409"/>
    </contour>
  </outline>
</glyph>
<glyph name="underscore" format="2">
  <advance width="600"/>
  <unicode hex="005F"/>
  <outline>
    <contour>
      <point x="77" y="-75" type="line"/>
      <point x="76" y="-90"/>
      <point x="76" y="-91"/>
      <point x="76" y="-95" type="curve"/>
      <point x="76" y="-119" type="line"/>
      <point x="76" y="-136"/>
      <point x="76" y="-140"/>
      <point x="76" y="-143" type="curve"/>
      <point x="646" y="-143" type="line"/>
      <point x="646" y="-140"/>
      <point x="646" y="-134"/>
      <point x="646" y="-127" type="curve"/>
      <point x="646" y="-90" type="line"/>
      <point x="646" y="-84"/>
      <point x="646" y="-79"/>
      <point x="646" y="-75" type="curve"/>
    </contour>
  </outline>
</glyph>
<glyph name="grave" format="2">
  <advance width="500"/>
  <unicode hex="0060"/>
  <outline>
    <contour>
      <point x="254" y="651" type="line"/>
      <point x="116" y="778" type="line"/>
      <point x="94" y="795"/>
      <point x="90" y="797"/>
      <point x="68" y="802" type="curve" smooth="yes"/>
      <point x="41" y="808"/>
      <point x="22" y="794"/>
      <point x="19" y="770" type="curve" smooth="yes"/>
      <point x="17" y="751"/>
      <point x="43" y="732"/>
      <point x="52" y="726" type="curve" smooth="yes"/>
      <point x="59" y="721"/>
      <point x="106" y="700"/>
      <point x="208" y="651" type="curve"/>
    </contour>
  </outline>
</glyph>
<glyph name="f" format="2">
  <advance width="550"/>
  <unicode hex="0066"/>
  <outline>
    <contour>
      <point x="421" y="826" type="line"/>
      <point x="349" y="832" type="line"/>
      <point x="296" y="823" type="line"/>
      <point x="249" y="807" type="line"/>
      <point x="212" y="782" type="line"/>
      <point x="181" y="754" type="line"/>
      <point x="152" y="697" type="line"/>
      <point x="136" y="623" type="line"/>
      <point x="134" y="513" type="line"/>
      <point x="21" y="513" type="line"/>
      <point x="23" y="467" type="line"/>
      <point x="133" y="466" type="line"/>
      <point x="136" y="280" type="line"/>
      <point x="134" y="203" type="line"/>
      <point x="135" y="145" type="line"/>
      <point x="134" y="105" type="line"/>
      <point x="126" y="70" type="line"/>
      <point x="118" y="53" type="line"/>
      <point x="98" y="42" type="line"/>
      <point x="69" y="36" type="line"/>
      <point x="49" y="35" type="line"/>
      <point x="49" y="0" type="line"/>
      <point x="111" y="0" type="line"/>
      <point x="146" y="0" type="line"/>
      <point x="187" y="1" type="line"/>
      <point x="243" y="-1" type="line"/>
      <point x="332" y="-1" type="line"/>
      <point x="332" y="33" type="line"/>
      <point x="313" y="35" type="line"/>
      <point x="294" y="38" type="line"/>
      <point x="275" y="43" type="line"/>
      <point x="260" y="52" type="line"/>
      <point x="245" y="70" type="line"/>
      <point x="232" y="104" type="line"/>
      <point x="229" y="186" type="line"/>
      <point x="229" y="260" type="line"/>
      <point x="229" y="300" type="line"/>
      <point x="228" y="335" type="line"/>
      <point x="228" y="355" type="line"/>
      <point x="229" y="377" type="line"/>
      <point x="229" y="467" type="line"/>
      <point x="313" y="467" type="line"/>
      <point x="340" y="467" type="line"/>
      <point x="390" y="467" type="line"/>
      <point x="390" y="481" type="line"/>
      <point x="390" y="498" type="line"/>
      <point x="390" y="514" type="line"/>
      <point x="349" y="514" type="line"/>
      <point x="229" y="514" type="line"/>
      <point x="229" y="565" type="line"/>
      <point x="229" y="612" type="line"/>
      <point x="232" y="685" type="line"/>
      <point x="239" y="713" type="line"/>
      <point x="260" y="751" type="line"/>
      <point x="293" y="778" type="line"/>
      <point x="332" y="784" type="line"/>
      <point x="372" y="771" type="line"/>
      <point x="446" y="720" type="line"/>
      <point x="461" y="713" type="line"/>
      <point x="484" y="719" type="line"/>
      <point x="503" y="740" type="line"/>
      <point x="508" y="764" type="line"/>
      <point x="501" y="788" type="line"/>
      <point x="474" y="810" type="line"/>
    </contour>
  </outline>
</glyph>
<glyph name="g" format="2">
  <advance width="650"/>
  <unicode hex="0067"/>
  <outline>
    <contour>
      <point x="568" y="435" type="line"/>
      <point x="602" y="455" type="line"/>
      <point x="609" y="493" type="line"/>
      <point x="585" y="517" type="line"/>
      <point x="554" y="541" type="line"/>
      <point x="496" y="534" type="line"/>
      <point x="472" y="517" type="line"/>
      <point x="437" y="496" type="line"/>
      <point x="393" y="496" type="line"/>
      <point x="355" y="520" type="line"/>
      <point x="290" y="537" type="line"/>
      <point x="235" y="537" type="line"/>
      <point x="184" y="524" type="line"/>
      <point x="139" y="489" type="line"/>
      <point x="108" y="462" type="line"/>
      <point x="81" y="400" type="line"/>
      <point x="74" y="369" type="line"/>
      <point x="67" y="328" type="line"/>
      <point x="81" y="280" type="line"/>
      <point x="105" y="243" type="line"/>
      <point x="136" y="229" type="line"/>
      <point x="177" y="204" type="line"/>
      <point x="116" y="184" type="line"/>
      <point x="81" y="137" type="line"/>
      <point x="77" y="95" type="line"/>
      <point x="90" y="48" type="line"/>
      <point x="115" y="27" type="line"/>
      <point x="183" y="7" type="line"/>
      <point x="251" y="2" type="line"/>
      <point x="335" y="-4" type="line"/>
      <point x="393" y="-11" type="line"/>
      <point x="441" y="-49" type="line"/>
      <point x="465" y="-90" type="line"/>
      <point x="458" y="-148" type="line"/>
      <point x="437" y="-179" type="line"/>
      <point x="393" y="-203" type="line"/>
      <point x="324" y="-220" type="line"/>
      <point x="280" y="-217" type="line"/>
      <point x="208" y="-210" type="line"/>
      <point x="161" y="-190" type="line"/>
      <point x="128" y="-158" type="line"/>
      <point x="115" y="-104" type="line"/>
      <point x="137" y="-61" type="line"/>
      <point x="177" y="-42" type="line"/>
      <point x="146" y="-18" type="line"/>
      <point x="98" y="-18" type="line"/>
      <point x="50" y="-59" type="line"/>
      <point x="29" y="-128" type="line"/>
      <point x="29" y="-135"/>
      <point x="36" y="-148"/>
      <point x="50" y="-169" type="curve"/>
      <point x="91" y="-217" type="line"/>
      <point x="125" y="-234" type="line"/>
      <point x="156" y="-244" type="line"/>
      <point x="221" y="-254" type="line"/>
      <point x="287" y="-265" type="line"/>
      <point x="372" y="-251" type="line"/>
      <point x="437" y="-234" type="line"/>
      <point x="479" y="-210" type="line"/>
      <point x="506" y="-182" type="line"/>
      <point x="527" y="-148" type="line"/>
      <point x="544" y="-83" type="line"/>
      <point x="544" y="-49" type="line"/>
      <point x="530" y="-28" type="line"/>
      <point x="513" y="3" type="line"/>
      <point x="489" y="37" type="line"/>
      <point x="455" y="58" type="line"/>
      <point x="399" y="77" type="line"/>
      <point x="355" y="84" type="line"/>
      <point x="310" y="87" type="line"/>
      <point x="269" y="92" type="line"/>
      <point x="224" y="98" type="line"/>
      <point x="198" y="99" type="line"/>
      <point x="172" y="104" type="line"/>
      <point x="155" y="114" type="line"/>
      <point x="152" y="117" type="line"/>
      <point x="133" y="134"/>
      <point x="157" y="168"/>
      <point x="189" y="164" type="curve"/>
      <point x="311" y="178" type="line"/>
      <point x="362" y="195" type="line"/>
      <point x="393" y="208" type="line"/>
      <point x="417" y="232" type="line"/>
      <point x="437" y="256" type="line"/>
      <point x="461" y="287" type="line"/>
      <point x="468" y="328" type="line"/>
      <point x="472" y="384" type="line"/>
      <point x="471" y="417" type="line"/>
      <point x="453" y="461" type="line"/>
      <point x="477" y="466" type="line"/>
      <point x="505" y="475" type="line"/>
      <point x="527" y="455" type="line"/>
      <point x="548" y="444" type="line"/>
    </contour>
    <contour>
      <point x="179" y="377" type="line"/>
      <point x="183" y="410" type="line"/>
      <point x="193" y="446" type="line"/>
      <point x="207" y="470" type="line"/>
      <point x="232" y="493" type="line"/>
      <point x="259" y="503" type="line"/>
      <point x="294" y="502" type="line"/>
      <point x="320" y="489" type="line"/>
      <point x="337" y="469" type="line"/>
      <point x="346" y="453" type="line"/>
      <point x="358" y="419" type="line"/>
      <point x="360" y="400" type="line"/>
      <point x="362" y="394"/>
      <point x="362" y="384"/>
      <point x="363" y="375" type="curve"/>
      <point x="363" y="358" type="line"/>
      <point x="363" y="336" type="line"/>
      <point x="358" y="306" type="line"/>
      <point x="352" y="279" type="line"/>
      <point x="341" y="255" type="line"/>
      <point x="321" y="231" type="line"/>
      <point x="301" y="219" type="line"/>
      <point x="281" y="215" type="line"/>
      <point x="255" y="217" type="line"/>
      <point x="235" y="225" type="line"/>
      <point x="217" y="239" type="line"/>
      <point x="201" y="261" type="line"/>
      <point x="189" y="289" type="line"/>
      <point x="183" y="314" type="line"/>
      <point x="180" y="343" type="line"/>
    </contour>
  </outline>
</glyph>
<glyph name="h" format="2">
  <advance width="700"/>
  <unicode hex="0068"/>
  <outline>
    <contour>
      <point x="206" y="830" type="line"/>
      <point x="149" y="817" type="line"/>
      <point x="81" y="803" type="line"/>
      <point x="22" y="793" type="line"/>
      <point x="22" y="773" type="line"/>
      <point x="22" y="758" type="line"/>
      <point x="44" y="757" type="line"/>
      <point x="63" y="755" type="line"/>
      <point x="79" y="751" type="line"/>
      <point x="86" y="749"/>
      <point x="95" y="742"/>
      <point x="100" y="731" type="curve"/>
      <point x="105" y="706" type="line"/>
      <point x="107" y="681" type="line"/>
      <point x="109" y="637" type="line"/>
      <point x="110" y="553" type="line"/>
      <point x="110" y="514" type="line"/>
      <point x="112" y="513"/>
      <point x="110" y="498"/>
      <point x="110" y="473" type="curve"/>
      <point x="109" y="357" type="line"/>
      <point x="111" y="310" type="line"/>
      <point x="110" y="192" type="line"/>
      <point x="107" y="94" type="line"/>
      <point x="99" y="65" type="line"/>
      <point x="82" y="45" type="line"/>
      <point x="59" y="39" type="line"/>
      <point x="22" y="34" type="line"/>
      <point x="23" y="1" type="line"/>
      <point x="63" y="0" type="line"/>
      <point x="198" y="1" type="line"/>
      <point x="289" y="-1" type="line"/>
      <point x="289" y="34" type="line"/>
      <point x="258" y="39" type="line"/>
      <point x="238" y="45" type="line"/>
      <point x="218" y="59" type="line"/>
      <point x="210" y="84" type="line"/>
      <point x="210" y="116" type="line"/>
      <point x="209" y="174" type="line"/>
      <point x="207" y="221" type="line"/>
      <point x="207" y="254" type="line"/>
      <point x="208" y="290" type="line"/>
      <point x="209" y="341" type="line"/>
      <point x="219" y="385" type="line"/>
      <point x="234" y="413" type="line"/>
      <point x="257" y="439" type="line"/>
      <point x="286" y="462" type="line"/>
      <point x="308" y="472" type="line"/>
      <point x="336" y="481" type="line"/>
      <point x="364" y="485" type="line"/>
      <point x="392" y="483" type="line"/>
      <point x="423" y="472" type="line"/>
      <point x="451" y="450" type="line"/>
      <point x="466" y="415" type="line"/>
      <point x="478" y="367" type="line"/>
      <point x="482" y="309" type="line"/>
      <point x="483" y="243" type="line"/>
      <point x="483" y="188" type="line"/>
      <point x="482" y="153" type="line"/>
      <point x="483" y="108" type="line"/>
      <point x="478" y="77" type="line"/>
      <point x="468" y="55" type="line"/>
      <point x="453" y="44" type="line"/>
      <point x="424" y="36" type="line"/>
      <point x="398" y="36" type="line"/>
      <point x="398" y="0" type="line"/>
      <point x="664" y="0" type="line"/>
      <point x="664" y="34" type="line"/>
      <point x="636" y="37" type="line"/>
      <point x="607" y="46" type="line"/>
      <point x="593" y="62" type="line"/>
      <point x="586" y="82" type="line"/>
      <point x="583" y="110" type="line"/>
      <point x="582" y="133" type="line"/>
      <point x="582" y="162" type="line"/>
      <point x="581" y="194" type="line"/>
      <point x="583" y="225" type="line"/>
      <point x="582" y="255" type="line"/>
      <point x="582" y="300" type="line"/>
      <point x="581" y="343" type="line"/>
      <point x="581" y="376" type="line"/>
      <point x="576" y="418" type="line"/>
      <point x="567" y="446" type="line"/>
      <point x="555" y="472" type="line"/>
      <point x="540" y="492" type="line"/>
      <point x="515" y="513" type="line"/>
      <point x="489" y="525" type="line"/>
      <point x="460" y="534" type="line"/>
      <point x="437" y="538" type="line"/>
      <point x="403" y="541" type="line"/>
      <point x="378" y="538" type="line"/>
      <point x="351" y="534" type="line"/>
      <point x="328" y="528" type="line"/>
      <point x="302" y="517" type="line"/>
      <point x="269" y="501" type="line"/>
      <point x="240" y="481" type="line"/>
      <point x="210" y="449" type="line"/>
      <point x="206" y="449" type="line"/>
      <point x="206" y="502" type="line"/>
      <point x="206" y="612" type="line"/>
      <point x="206" y="653" type="line"/>
      <point x="206" y="729" type="line"/>
      <point x="206" y="771" type="line"/>
      <point x="206" y="824" type="line"/>
    </contour>
  </outline>
</glyph>
<glyph name="j" format="2">
  <advance width="300"/>
  <unicode hex="006A"/>
  <outline>
    <contour>
      <point x="123" y="708" type="line"/>
      <point x="128" y="702" type="line"/>
      <point x="138" y="693" type="line"/>
      <point x="155" y="684" type="line"/>
      <point x="168" y="681" type="line"/>
      <point x="181" y="681" type="line"/>
      <point x="196" y="684" type="line"/>
      <point x="205" y="688" type="line"/>
      <point x="212" y="693" type="line"/>
      <point x="220" y="700" type="line"/>
      <point x="229" y="712" type="line"/>
      <point x="234" y="723" type="line"/>
      <point x="236" y="732" type="line"/>
      <point x="237" y="742" type="line"/>
      <point x="237" y="750" type="line"/>
      <point x="235" y="760" type="line"/>
      <point x="232" y="769" type="line"/>
      <point x="228" y="776" type="line"/>
      <point x="223" y="783" type="line"/>
      <point x="217" y="789" type="line"/>
      <point x="210" y="795" type="line"/>
      <point x="204" y="798" type="line"/>
      <point x="193" y="803" type="line"/>
      <point x="181" y="805" type="line"/>
      <point x="172" y="805" type="line"/>
      <point x="157" y="803" type="line"/>
      <point x="147" y="799" type="line"/>
      <point x="137" y="792" type="line"/>
      <point x="126" y="782" type="line"/>
      <point x="120" y="772" type="line"/>
      <point x="115" y="762" type="line"/>
      <point x="113" y="750" type="line"/>
      <point x="113" y="733" type="line"/>
      <point x="116" y="722" type="line"/>
    </contour>
    <contour>
      <point x="213" y="540" type="line"/>
      <point x="169" y="532" type="line"/>
      <point x="121" y="522" type="line"/>
      <point x="53" y="508" type="line"/>
      <point x="17" y="502" type="line"/>
      <point x="17" y="467" type="line"/>
      <point x="37" y="467" type="line"/>
      <point x="54" y="465" type="line"/>
      <point x="75" y="462" type="line"/>
      <point x="90" y="456" type="line"/>
      <point x="103" y="441" type="line"/>
      <point x="111" y="413" type="line"/>
      <point x="114" y="371" type="line"/>
      <point x="115" y="306" type="line"/>
      <point x="115" y="236" type="line"/>
      <point x="115" y="144" type="line"/>
      <point x="115" y="87" type="line"/>
      <point x="115" y="0" type="line"/>
      <point x="115" y="-79" type="line"/>
      <point x="113" y="-116" type="line"/>
      <point x="110" y="-138" type="line"/>
      <point x="103" y="-169" type="line"/>
      <point x="91" y="-192" type="line"/>
      <point x="79" y="-203" type="line"/>
      <point x="65" y="-211" type="line"/>
      <point x="44" y="-216" type="line"/>
      <point x="23" y="-217" type="line"/>
      <point x="3" y="-213" type="line"/>
      <point x="-11" y="-205" type="line"/>
      <point x="-23" y="-188" type="line"/>
      <point x="-35" y="-165" type="line"/>
      <point x="-53" y="-136" type="line"/>
      <point x="-69" y="-121" type="line"/>
      <point x="-100" y="-121" type="line"/>
      <point x="-132" y="-140" type="line"/>
      <point x="-137" y="-160" type="line"/>
      <point x="-136" y="-187" type="line"/>
      <point x="-129" y="-205" type="line"/>
      <point x="-114" y="-223" type="line"/>
      <point x="-95" y="-238" type="line"/>
      <point x="-67" y="-250" type="line"/>
      <point x="-45" y="-256" type="line"/>
      <point x="-23" y="-257" type="line"/>
      <point x="9" y="-260" type="line"/>
      <point x="41" y="-257" type="line"/>
      <point x="72" y="-252" type="line"/>
      <point x="96" y="-241" type="line"/>
      <point x="119" y="-230" type="line"/>
      <point x="149" y="-207" type="line"/>
      <point x="167" y="-185" type="line"/>
      <point x="182" y="-160" type="line"/>
      <point x="191" y="-138" type="line"/>
      <point x="202" y="-111" type="line"/>
      <point x="209" y="-63" type="line"/>
      <point x="213" y="-9" type="line"/>
      <point x="213" y="47" type="line"/>
      <point x="213" y="86" type="line"/>
      <point x="213" y="137" type="line"/>
      <point x="213" y="194" type="line"/>
      <point x="213" y="226" type="line"/>
      <point x="213" y="291" type="line"/>
      <point x="213" y="358" type="line"/>
      <point x="213" y="416" type="line"/>
      <point x="212" y="452" type="line"/>
      <point x="213" y="495" type="line"/>
    </contour>
  </outline>
</glyph>
<glyph name="k" format="2">
  <advance width="600"/>
  <unicode hex="006B"/>
  <outline>
    <contour>
      <point x="208" y="829" type="line"/>
      <point x="157" y="819" type="line"/>
      <point x="111" y="812" type="line"/>
      <point x="14" y="792" type="line"/>
      <point x="11" y="757" type="line"/>
      <point x="27" y="757" type="line"/>
      <point x="53" y="758" type="line"/>
      <point x="81" y="757" type="line"/>
      <point x="97" y="745" type="line"/>
      <point x="106" y="726" type="line"/>
      <point x="110" y="697" type="line"/>
      <point x="111" y="659" type="line"/>
      <point x="114" y="500" type="line"/>
      <point x="107" y="379" type="line"/>
      <point x="113" y="147" type="line"/>
      <point x="113" y="111" type="line"/>
      <point x="106" y="94" type="line"/>
      <point x="103" y="74" type="line"/>
      <point x="97" y="63" type="line"/>
      <point x="82" y="48" type="line"/>
      <point x="67" y="45" type="line"/>
      <point x="54" y="39" type="line"/>
      <point x="30" y="37" type="line"/>
      <point x="14" y="37" type="line"/>
      <point x="14" y="1" type="line"/>
      <point x="150" y="0" type="line"/>
      <point x="301" y="1" type="line"/>
      <point x="297" y="37" type="line"/>
      <point x="277" y="36" type="line"/>
      <point x="249" y="41" type="line"/>
      <point x="231" y="55" type="line"/>
      <point x="218" y="80" type="line"/>
      <point x="213" y="104" type="line"/>
      <point x="210" y="132" type="line"/>
      <point x="206" y="162" type="line"/>
      <point x="204" y="194" type="line"/>
      <point x="205" y="215" type="line"/>
      <point x="244" y="249" type="line"/>
      <point x="271" y="221" type="line"/>
      <point x="304" y="181" type="line"/>
      <point x="334" y="143" type="line"/>
      <point x="359" y="116" type="line"/>
      <point x="386" y="86" type="line"/>
      <point x="406" y="52" type="line"/>
      <point x="404" y="39" type="line"/>
      <point x="383" y="35" type="line"/>
      <point x="352" y="33" type="line"/>
      <point x="352" y="3" type="line"/>
      <point x="462" y="-1" type="line"/>
      <point x="613" y="-1" type="line"/>
      <point x="610" y="36" type="line"/>
      <point x="594" y="36" type="line"/>
      <point x="572" y="41" type="line"/>
      <point x="556" y="49" type="line"/>
      <point x="534" y="59" type="line"/>
      <point x="515" y="80" type="line"/>
      <point x="479" y="118" type="line"/>
      <point x="419" y="183" type="line"/>
      <point x="359" y="251" type="line"/>
      <point x="307" y="312" type="line"/>
      <point x="372" y="380" type="line"/>
      <point x="441" y="432" type="line"/>
      <point x="466" y="457" type="line"/>
      <point x="478" y="468" type="line"/>
      <point x="490" y="472" type="line"/>
      <point x="503" y="480" type="line"/>
      <point x="523" y="492" type="line"/>
      <point x="541" y="496" type="line"/>
      <point x="565" y="496" type="line"/>
      <point x="572" y="527" type="line"/>
      <point x="458" y="534" type="line"/>
      <point x="309" y="531" type="line"/>
      <point x="308" y="500" type="line"/>
      <point x="354" y="490" type="line"/>
      <point x="382" y="483" type="line"/>
      <point x="391" y="467" type="line"/>
      <point x="375" y="443" type="line"/>
      <point x="308" y="381" type="line"/>
      <point x="253" y="328" type="line"/>
      <point x="212" y="282" type="line"/>
      <point x="206" y="353" type="line"/>
      <point x="208" y="503" type="line"/>
      <point x="208" y="653" type="line"/>
    </contour>
  </outline>
</glyph>
<glyph name="m" format="2">
  <advance width="1100"/>
  <unicode hex="006D"/>
  <outline>
    <contour>
      <point x="197" y="538" type="line"/>
      <point x="34" y="501" type="line"/>
      <point x="35" y="466" type="line"/>
      <point x="53" y="467" type="line"/>
      <point x="77" y="465" type="line"/>
      <point x="99" y="457" type="line"/>
      <point x="118" y="422" type="line"/>
      <point x="126" y="371" type="line"/>
      <point x="123" y="230" type="line"/>
      <point x="123" y="110" type="line"/>
      <point x="118" y="74" type="line"/>
      <point x="109" y="54" type="line"/>
      <point x="79" y="40" type="line"/>
      <point x="32" y="38" type="line"/>
      <point x="32" y="2" type="line"/>
      <point x="153" y="0" type="line"/>
      <point x="303" y="0" type="line"/>
      <point x="303" y="35" type="line"/>
      <point x="283" y="37" type="line"/>
      <point x="257" y="41" type="line"/>
      <point x="240" y="49" type="line"/>
      <point x="231" y="59" type="line"/>
      <point x="224" y="82" type="line"/>
      <point x="220" y="229" type="line"/>
      <point x="223" y="351" type="line"/>
      <point x="234" y="388" type="line"/>
      <point x="250" y="417" type="line"/>
      <point x="285" y="452" type="line"/>
      <point x="318" y="472" type="line"/>
      <point x="357" y="483" type="line"/>
      <point x="399" y="484" type="line"/>
      <point x="440" y="474" type="line"/>
      <point x="464" y="452" type="line"/>
      <point x="480" y="425" type="line"/>
      <point x="490" y="380" type="line"/>
      <point x="497" y="333" type="line"/>
      <point x="499" y="123" type="line"/>
      <point x="497" y="87" type="line"/>
      <point x="486" y="57" type="line"/>
      <point x="466" y="43" type="line"/>
      <point x="439" y="38" type="line"/>
      <point x="413" y="35" type="line"/>
      <point x="413" y="1" type="line"/>
      <point x="530" y="0" type="line"/>
      <point x="679" y="0" type="line"/>
      <point x="679" y="35" type="line"/>
      <point x="655" y="37" type="line"/>
      <point x="632" y="41" type="line"/>
      <point x="616" y="47" type="line"/>
      <point x="603" y="65" type="line"/>
      <point x="596" y="89" type="line"/>
      <point x="595" y="228" type="line"/>
      <point x="596" y="346" type="line"/>
      <point x="611" y="395" type="line"/>
      <point x="621" y="416" type="line"/>
      <point x="649" y="438" type="line"/>
      <point x="668" y="452" type="line"/>
      <point x="696" y="474" type="line"/>
      <point x="732" y="486" type="line"/>
      <point x="760" y="486" type="line"/>
      <point x="799" y="483" type="line"/>
      <point x="830" y="463" type="line"/>
      <point x="844" y="441" type="line"/>
      <point x="860" y="405" type="line"/>
      <point x="866" y="374" type="line"/>
      <point x="872" y="346" type="line"/>
      <point x="869" y="232" type="line"/>
      <point x="872" y="127" type="line"/>
      <point x="869" y="91" type="line"/>
      <point x="869" y="74" type="line"/>
      <point x="863" y="54" type="line"/>
      <point x="844" y="46" type="line"/>
      <point x="810" y="38" type="line"/>
      <point x="785" y="29" type="line"/>
      <point x="787" y="0" type="line"/>
      <point x="897" y="0" type="line"/>
      <point x="1053" y="0" type="line"/>
      <point x="1054" y="35" type="line"/>
      <point x="1032" y="37" type="line"/>
      <point x="1003" y="42" type="line"/>
      <point x="987" y="52" type="line"/>
      <point x="978" y="68" type="line"/>
      <point x="971" y="94" type="line"/>
      <point x="970" y="142" type="line"/>
      <point x="970" y="338" type="line"/>
      <point x="969" y="372" type="line"/>
      <point x="966" y="397" type="line"/>
      <point x="960" y="435" type="line"/>
      <point x="948" y="465" type="line"/>
      <point x="932" y="487" type="line"/>
      <point x="917" y="502" type="line"/>
      <point x="893" y="518" type="line"/>
      <point x="860" y="532" type="line"/>
      <point x="824" y="539" type="line"/>
      <point x="788" y="540" type="line"/>
      <point x="733" y="534" type="line"/>
      <point x="688" y="519" type="line"/>
      <point x="652" y="497" type="line"/>
      <point x="633" y="484" type="line"/>
      <point x="590" y="441" type="line"/>
      <point x="587" y="441" type="line"/>
      <point x="567" y="479" type="line"/>
      <point x="538" y="505" type="line"/>
      <point x="516" y="519" type="line"/>
      <point x="466" y="537" type="line"/>
      <point x="410" y="541" type="line"/>
      <point x="372" y="535" type="line"/>
      <point x="349" y="530" type="line"/>
      <point x="312" y="517" type="line"/>
      <point x="276" y="497" type="line"/>
      <point x="254" y="477" type="line"/>
      <point x="218" y="440" type="line"/>
      <point x="211" y="441" type="line"/>
    </contour>
  </outline>
</glyph>
<glyph name="p" format="2">
  <advance width="650"/>
  <unicode hex="0070"/>
  <outline>
    <contour>
      <point x="210" y="536" type="line"/>
      <point x="18" y="498" type="line"/>
      <point x="18" y="464" type="line"/>
      <point x="33" y="464" type="line"/>
      <point x="71" y="460" type="line"/>
      <point x="84" y="457" type="line"/>
      <point x="98" y="447" type="line"/>
      <point x="108" y="428" type="line"/>
      <point x="112" y="406" type="line"/>
      <point x="114" y="383" type="line"/>
      <point x="116" y="321" type="line"/>
      <point x="116" y="293" type="line"/>
      <point x="115" y="266" type="line"/>
      <point x="116" y="229" type="line"/>
      <point x="116" y="196" type="line"/>
      <point x="116" y="170" type="line"/>
      <point x="116" y="147" type="line"/>
      <point x="116" y="128" type="line"/>
      <point x="116" y="19" type="line"/>
      <point x="116" y="-121" type="line"/>
      <point x="113" y="-144" type="line"/>
      <point x="112" y="-160" type="line"/>
      <point x="105" y="-179" type="line"/>
      <point x="95" y="-195" type="line"/>
      <point x="81" y="-204" type="line"/>
      <point x="66" y="-210" type="line"/>
      <point x="48" y="-213" type="line"/>
      <point x="21" y="-216" type="line"/>
      <point x="20" y="-250" type="line"/>
      <point x="328" y="-251" type="line"/>
      <point x="329" y="-214" type="line"/>
      <point x="185" y="-221"/>
      <point x="220" y="-124"/>
      <point x="214" y="-113" type="curve"/>
      <point x="214" y="-67" type="line"/>
      <point x="215" y="54" type="line"/>
      <point x="250" y="23" type="line"/>
      <point x="302" y="-2" type="line"/>
      <point x="351" y="-10" type="line"/>
      <point x="425" y="-5" type="line"/>
      <point x="486" y="16" type="line"/>
      <point x="531" y="41" type="line"/>
      <point x="572" y="83" type="line"/>
      <point x="598" y="128" type="line"/>
      <point x="619" y="169" type="line"/>
      <point x="623" y="199" type="line"/>
      <point x="626" y="223" type="line"/>
      <point x="629" y="240" type="line"/>
      <point x="631" y="268" type="line"/>
      <point x="628" y="295" type="line"/>
      <point x="624" y="333" type="line"/>
      <point x="616" y="360" type="line"/>
      <point x="603" y="392" type="line"/>
      <point x="591" y="416" type="line"/>
      <point x="580" y="433" type="line"/>
      <point x="557" y="463" type="line"/>
      <point x="521" y="494" type="line"/>
      <point x="472" y="521" type="line"/>
      <point x="426" y="536" type="line"/>
      <point x="366" y="541" type="line"/>
      <point x="317" y="534" type="line"/>
      <point x="280" y="518" type="line"/>
      <point x="262" y="504" type="line"/>
      <point x="242" y="487" type="line"/>
      <point x="214" y="458" type="line"/>
      <point x="210" y="458" type="line"/>
    </contour>
    <contour>
      <point x="273" y="467" type="line"/>
      <point x="334" y="492" type="line"/>
      <point x="402" y="488" type="line"/>
      <point x="455" y="452" type="line"/>
      <point x="489" y="405" type="line"/>
      <point x="510" y="351" type="line"/>
      <point x="520" y="294" type="line"/>
      <point x="514" y="204" type="line"/>
      <point x="504" y="160" type="line"/>
      <point x="471" y="89" type="line"/>
      <point x="433" y="58" type="line"/>
      <point x="390" y="43" type="line"/>
      <point x="346" y="38" type="line"/>
      <point x="283" y="61" type="line"/>
      <point x="239" y="105" type="line"/>
      <point x="222" y="146" type="line"/>
      <point x="214" y="188" type="line"/>
      <point x="217" y="373" type="line"/>
      <point x="238" y="426" type="line"/>
    </contour>
  </outline>
</glyph>
<glyph name="z" format="2">
  <advance width="530"/>
  <unicode hex="007A"/>
  <outline>
    <contour>
      <point x="79" y="532" type="curve"/>
      <point x="64" y="396" type="line"/>
      <point x="77" y="397"/>
      <point x="99" y="395"/>
      <point x="99" y="395" type="curve" smooth="yes"/>
      <point x="113" y="491"/>
      <point x="150" y="478"/>
      <point x="198" y="488" type="curve"/>
      <point x="365" y="487" type="line"/>
      <point x="353" y="471"/>
      <point x="323" y="424"/>
      <point x="243" y="320" type="curve"/>
      <point x="169.70751091274033" y="217.01941406726806"/>
      <point x="90.25881574029096" y="109.26296432395729"/>
      <point x="18" y="3" type="curve" smooth="yes"/>
      <point x="17" y="2"/>
      <point x="18" y="-1"/>
      <point x="18" y="0" type="curve"/>
      <point x="36" y="0"/>
      <point x="376" y="0"/>
      <point x="392" y="0" type="curve" smooth="yes"/>
      <point x="408" y="0"/>
      <point x="491" y="0"/>
      <point x="498" y="0" type="curve" smooth="yes"/>
      <point x="498" y="0"/>
      <point x="501" y="22"/>
      <point x="503" y="42" type="curve" smooth="yes"/>
      <point x="506" y="65"/>
      <point x="514" y="137"/>
      <point x="514" y="154" type="curve" smooth="yes"/>
      <point x="514" y="158"/>
      <point x="501" y="154"/>
      <point x="482" y="155" type="curve"/>
      <point x="478" y="129" type="line"/>
      <point x="467" y="100"/>
      <point x="429" y="37"/>
      <point x="309" y="46" type="curve" smooth="yes"/>
      <point x="302" y="47"/>
      <point x="236" y="46"/>
      <point x="165" y="50" type="curve"/>
      <point x="296" y="225" type="line"/>
      <point x="511" y="528" type="line"/>
      <point x="491" y="528"/>
      <point x="352" y="528"/>
    </contour>
  </outline>
</glyph>
<glyph name="brokenbar" format="2">
  <advance width="300"/>
  <unicode hex="00A6"/>
  <outline>
    <contour>
      <point x="107" y="758" type="line"/>
      <point x="107" y="360" type="line"/>
      <point x="189" y="360" type="line"/>
      <point x="189" y="758" type="line"/>
    </contour>
    <contour>
      <point x="107" y="258" type="line"/>
      <point x="107" y="-140" type="line"/>
      <point x="189" y="-140" type="line"/>
      <point x="189" y="258" type="line"/>
    </contour>
  </outline>
</glyph>
<glyph name="copyright" format="2">
  <advance width="900"/>
  <unicode hex="00A9"/>
  <outline>
    <contour>
      <point x="783" y="386" type="curve" smooth="yes"/>
      <point x="783" y="197"/>
      <point x="630" y="44"/>
      <point x="441" y="44" type="curve" smooth="yes"/>
      <point x="252" y="44"/>
      <point x="99" y="197"/>
      <point x="99" y="386" type="curve" smooth="yes"/>
      <point x="99" y="575"/>
      <point x="252" y="728"/>
      <point x="441" y="728" type="curve" smooth="yes"/>
      <point x="630" y="728"/>
      <point x="783" y="575"/>
    </contour>
    <contour>
      <point x="831" y="386" type="curve" smooth="yes"/>
      <point x="831" y="602"/>
      <point x="657" y="776"/>
      <point x="441" y="776" type="curve" smooth="yes"/>
      <point x="225" y="776"/>
      <point x="52" y="602"/>
      <point x="52" y="386" type="curve" smooth="yes"/>
      <point x="52" y="170"/>
      <point x="225" y="-3"/>
      <point x="441" y="-3" type="curve" smooth="yes"/>
      <point x="657" y="-3"/>
      <point x="831" y="170"/>
    </contour>
    <contour>
      <point x="612" y="472" type="line"/>
      <point x="607" y="603" type="line"/>
      <point x="586" y="603" type="line"/>
      <point x="576" y="568" type="line"/>
      <point x="539" y="598"/>
      <point x="469" y="611"/>
      <point x="450" y="610" type="curve" smooth="yes"/>
      <point x="395" y="608"/>
      <point x="326" y="588"/>
      <point x="285" y="542" type="curve" smooth="yes"/>
      <point x="254" y="508"/>
      <point x="225" y="440"/>
      <point x="225" y="380" type="curve" smooth="yes"/>
      <point x="225" y="329"/>
      <point x="239" y="273"/>
      <point x="265" y="241" type="curve" smooth="yes"/>
      <point x="313" y="181"/>
      <point x="358" y="160"/>
      <point x="447" y="156" type="curve" smooth="yes"/>
      <point x="536" y="152"/>
      <point x="576" y="208"/>
      <point x="590" y="235" type="curve" smooth="yes"/>
      <point x="595" y="245"/>
      <point x="609" y="268"/>
      <point x="617" y="305" type="curve"/>
      <point x="584" y="305" type="line"/>
      <point x="580" y="291"/>
      <point x="572" y="260"/>
      <point x="554" y="241" type="curve" smooth="yes"/>
      <point x="537" y="222"/>
      <point x="512" y="198"/>
      <point x="450" y="198" type="curve" smooth="yes"/>
      <point x="428" y="198"/>
      <point x="380" y="205"/>
      <point x="358" y="235" type="curve" smooth="yes"/>
      <point x="325" y="279"/>
      <point x="313" y="299"/>
      <point x="313" y="379" type="curve" smooth="yes"/>
      <point x="313" y="432"/>
      <point x="315" y="461"/>
      <point x="346" y="514" type="curve" smooth="yes"/>
      <point x="373" y="560"/>
      <point x="414" y="568"/>
      <point x="448" y="569" type="curve" smooth="yes"/>
      <point x="476" y="570"/>
      <point x="524" y="562"/>
      <point x="553" y="530" type="curve" smooth="yes"/>
      <point x="560" y="522"/>
      <point x="576" y="511"/>
      <point x="587" y="472" type="curve"/>
    </contour>
  </outline>
</glyph>
<glyph name="logicalnot" format="2">
  <advance width="600"/>
  <unicode hex="00AC"/>
  <outline>
    <contour>
      <point x="541" y="363" type="line"/>
      <point x="83" y="363" type="line"/>
      <point x="83" y="313" type="line"/>
      <point x="492" y="312" type="line"/>
      <point x="491" y="110" type="line"/>
      <point x="541" y="110" type="line"/>
    </contour>
  </outline>
</glyph>
<glyph name="paragraph" format="2">
  <advance width="600"/>
  <unicode hex="00B6"/>
  <outline>
    <contour>
      <point x="400" y="-167" type="line"/>
      <point x="434" y="-165"/>
      <point x="531" y="-165" type="qcurve" smooth="yes"/>
      <point x="582" y="-165" type="line"/>
      <point x="584" y="-127"/>
      <point x="582" y="-127" type="qcurve" smooth="yes"/>
      <point x="574" y="-128"/>
      <point x="557" y="-126" type="qcurve" smooth="yes"/>
      <point x="540" y="-124"/>
      <point x="535" y="-124" type="qcurve" smooth="yes"/>
      <point x="524" y="-123"/>
      <point x="515.5" y="-120" type="qcurve" smooth="yes"/>
      <point x="507" y="-117"/>
      <point x="501" y="-110" type="qcurve" smooth="yes"/>
      <point x="495" y="-103"/>
      <point x="490.5" y="-97.5" type="qcurve" smooth="yes"/>
      <point x="486" y="-92"/>
      <point x="483" y="-80.5" type="qcurve" smooth="yes"/>
      <point x="480" y="-69"/>
      <point x="478" y="-63.5" type="qcurve" smooth="yes"/>
      <point x="476" y="-58"/>
      <point x="475" y="-44.5" type="qcurve" smooth="yes"/>
      <point x="474" y="-31"/>
      <point x="473.5" y="-27" type="qcurve" smooth="yes"/>
      <point x="473" y="-23"/>
      <point x="473" y="-8.5" type="qcurve" smooth="yes"/>
      <point x="473" y="6" type="line" smooth="yes"/>
      <point x="473" y="20"/>
      <point x="472" y="45" type="qcurve" smooth="yes"/>
      <point x="471" y="70"/>
      <point x="470.5" y="88" type="qcurve" smooth="yes"/>
      <point x="470" y="106"/>
      <point x="470" y="117" type="qcurve" smooth="yes"/>
      <point x="472" y="163"/>
      <point x="472" y="224" type="qcurve" smooth="yes"/>
      <point x="472" y="247"/>
      <point x="473" y="381.5" type="qcurve" smooth="yes"/>
      <point x="474" y="516"/>
      <point x="474" y="526" type="qcurve" smooth="yes"/>
      <point x="474" y="534"/>
      <point x="473.5" y="562" type="qcurve" smooth="yes"/>
      <point x="473" y="590"/>
      <point x="473" y="605" type="qcurve" smooth="yes"/>
      <point x="473" y="645"/>
      <point x="480" y="683" type="qcurve"/>
      <point x="486" y="718"/>
      <point x="515" y="725" type="qcurve" smooth="yes"/>
      <point x="537" y="731"/>
      <point x="582" y="732" type="qcurve"/>
      <point x="581" y="758"/>
      <point x="582" y="770" type="qcurve"/>
      <point x="559" y="770" type="line"/>
      <point x="540" y="770" type="line"/>
      <point x="521" y="770" type="line"/>
      <point x="495" y="770" type="line"/>
      <point x="467" y="770" type="line"/>
      <point x="431" y="770" type="line"/>
      <point x="421" y="770"/>
      <point x="412.5" y="770" type="qcurve" smooth="yes"/>
      <point x="404" y="770"/>
      <point x="400" y="770" type="qcurve" smooth="yes"/>
      <point x="396" y="770"/>
      <point x="391" y="770" type="qcurve" smooth="yes"/>
      <point x="336" y="770" type="line"/>
      <point x="328" y="770"/>
      <point x="299" y="770" type="qcurve" smooth="yes"/>
      <point x="270" y="770"/>
      <point x="253" y="769.5" type="qcurve" smooth="yes"/>
      <point x="236" y="769"/>
      <point x="210" y="764.5" type="qcurve" smooth="yes"/>
      <point x="184" y="760"/>
      <point x="165" y="752" type="qcurve" smooth="yes"/>
      <point x="143" y="742"/>
      <point x="134.5" y="738" type="qcurve" smooth="yes"/>
      <point x="126" y="734"/>
      <point x="104.5" y="718.5" type="qcurve" smooth="yes"/>
      <point x="83" y="703"/>
      <point x="72" y="687" type="qcurve" smooth="yes"/>
      <point x="61" y="671"/>
      <point x="49.5" y="642.5" type="qcurve" smooth="yes"/>
      <point x="38" y="614"/>
      <point x="34" y="578" type="qcurve"/>
      <point x="35" y="570"/>
      <point x="36" y="548.5" type="qcurve" smooth="yes"/>
      <point x="37" y="527"/>
      <point x="38" y="518.5" type="qcurve" smooth="yes"/>
      <point x="39" y="510"/>
      <point x="43.5" y="492" type="qcurve" smooth="yes"/>
      <point x="48" y="474"/>
      <point x="55.5" y="463" type="qcurve" smooth="yes"/>
      <point x="63" y="452"/>
      <point x="76.5" y="437" type="qcurve" smooth="yes"/>
      <point x="90" y="422"/>
      <point x="110" y="408" type="qcurve" smooth="yes"/>
      <point x="129" y="395"/>
      <point x="150.5" y="386.5" type="qcurve" smooth="yes"/>
      <point x="172" y="378"/>
      <point x="191.5" y="375" type="qcurve" smooth="yes"/>
      <point x="211" y="372"/>
      <point x="226.5" y="371.5" type="qcurve" smooth="yes"/>
      <point x="242" y="371"/>
      <point x="255" y="371.5" type="qcurve" smooth="yes"/>
      <point x="268" y="372"/>
      <point x="270" y="372" type="qcurve" smooth="yes"/>
      <point x="271" y="372"/>
      <point x="270.5" y="279.5" type="qcurve" smooth="yes"/>
      <point x="270" y="187"/>
      <point x="269.5" y="101" type="qcurve" smooth="yes"/>
      <point x="269" y="15"/>
      <point x="270" y="-13" type="qcurve" smooth="yes"/>
      <point x="274" y="-91"/>
      <point x="248" y="-109" type="qcurve" smooth="yes"/>
      <point x="216" y="-131"/>
      <point x="154" y="-127" type="qcurve"/>
      <point x="154" y="-129"/>
      <point x="154" y="-132.5" type="qcurve" smooth="yes"/>
      <point x="154" y="-136"/>
      <point x="153.5" y="-146" type="qcurve" smooth="yes"/>
      <point x="153" y="-156"/>
      <point x="153" y="-159.5" type="qcurve" smooth="yes"/>
      <point x="153" y="-163"/>
      <point x="153" y="-165" type="qcurve"/>
      <point x="347" y="-165" type="line"/>
      <point x="347" y="5" type="line"/>
      <point x="346" y="36"/>
      <point x="346.5" y="59.5" type="qcurve" smooth="yes"/>
      <point x="347" y="83"/>
      <point x="348" y="101.5" type="qcurve" smooth="yes"/>
      <point x="349" y="120"/>
      <point x="348" y="124" type="qcurve" smooth="yes"/>
      <point x="345" y="137"/>
      <point x="345" y="276" type="qcurve" smooth="yes"/>
      <point x="345" y="415"/>
      <point x="346" y="431" type="qcurve" smooth="yes"/>
      <point x="348" y="470"/>
      <point x="348.5" y="544" type="qcurve" smooth="yes"/>
      <point x="349" y="618"/>
      <point x="348.5" y="672" type="qcurve" smooth="yes"/>
      <point x="348" y="726" type="line"/>
      <point x="399" y="726" type="line"/>
      <point x="400" y="664"/>
      <point x="400" y="592.5" type="qcurve" smooth="yes"/>
      <point x="400" y="521"/>
      <point x="400" y="472.5" type="qcurve" smooth="yes"/>
      <point x="400" y="424"/>
      <point x="399.5" y="382" type="qcurve" smooth="yes"/>
      <point x="399" y="340"/>
      <point x="399" y="336" type="qcurve" smooth="yes"/>
      <point x="399" y="47"/>
      <point x="398" y="18" type="qcurve" smooth="yes"/>
      <point x="398" y="16"/>
      <point x="398.5" y="-8.5" type="qcurve" smooth="yes"/>
      <point x="399" y="-33"/>
      <point x="399.5" y="-52.5" type="qcurve" smooth="yes"/>
      <point x="400" y="-72"/>
      <point x="399" y="-94" type="qcurve"/>
    </contour>
    <contour>
      <point x="294" y="711" type="line"/>
      <point x="294" y="710" type="line"/>
      <point x="293" y="711" type="line"/>
    </contour>
  </outline>
</glyph>
<glyph name="Agrave" format="2">
  <advance width="800"/>
  <unicode hex="00C0"/>
  <anchor x="466.42932832821555" y="795.0282341335799" name="_top"/>
  <outline>
    <contour>
      <point x="483.52556920085334" y="847.7986666505183" type="line"/>
      <point x="325.56878072146844" y="948.9058027650321" type="line"/>
      <point x="300.9509911348621" y="961.8272746575672"/>
      <point x="296.66446376747945" y="963.102297452924"/>
      <point x="274.1304523128762" y="964.2060763093125" type="curve" smooth="yes"/>
      <point x="246.49875391554497" y="965.4264220303787"/>
      <point x="230.21848109565008" y="948.3397981125361"/>
      <point x="231.43161410061975" y="924.1834675072423" type="curve" smooth="yes"/>
      <point x="232.761313970267" y="905.1248238446765"/>
      <point x="261.6656309242561" y="890.9283291567847"/>
      <point x="271.57078976736756" y="886.5823162377137" type="curve" smooth="yes"/>
      <point x="279.3326849267877" y="882.8738147163212"/>
      <point x="329.265261049367" y="870.3543162534106"/>
      <point x="438.2244125622918" y="839.8108504778393" type="curve"/>
    </contour>
    <contour>
      <point x="281" y="556" type="qcurve"/>
      <point x="195" y="339"/>
      <point x="186" y="321" type="qcurve"/>
      <point x="150" y="241"/>
      <point x="124" y="171"/>
      <point x="113" y="129"/>
      <point x="105" y="109" type="qcurve" smooth="yes"/>
      <point x="81" y="51"/>
      <point x="-3" y="38" type="qcurve" smooth="yes"/>
      <point x="-6" y="38"/>
      <point x="-2" y="0" type="qcurve"/>
      <point x="238" y="-2"/>
      <point x="238" y="0" type="qcurve" smooth="yes"/>
      <point x="242" y="34"/>
      <point x="239" y="34" type="qcurve" smooth="yes"/>
      <point x="154" y="44"/>
      <point x="160" y="87" type="qcurve" smooth="yes"/>
      <point x="172" y="164"/>
      <point x="223" y="278" type="qcurve"/>
      <point x="490" y="278" type="line"/>
      <point x="595" y="57"/>
      <point x="532" y="48" type="qcurve" smooth="yes"/>
      <point x="460" y="38" type="line"/>
      <point x="459" y="-2" type="line"/>
      <point x="800.2857142857143" y="0" type="line"/>
      <point x="801.2857142857143" y="37" type="line"/>
      <point x="743.2857142857143" y="44" type="line"/>
      <point x="691" y="60"/>
      <point x="637" y="195" type="qcurve" smooth="yes"/>
      <point x="601" y="285" type="line"/>
      <point x="578" y="352" type="line" smooth="yes"/>
      <point x="574" y="364"/>
      <point x="548" y="424" type="qcurve"/>
      <point x="529" y="460"/>
      <point x="512" y="513"/>
      <point x="502" y="532" type="qcurve" smooth="yes"/>
      <point x="478" y="578"/>
      <point x="408" y="769" type="qcurve"/>
      <point x="364" y="770"/>
      <point x="364" y="770" type="qcurve"/>
      <point x="363" y="766"/>
      <point x="343" y="727"/>
      <point x="329" y="681" type="qcurve"/>
      <point x="310" y="648"/>
      <point x="301" y="612" type="qcurve" smooth="yes"/>
      <point x="297" y="594"/>
    </contour>
    <contour>
      <point x="472" y="329" type="qcurve"/>
      <point x="242" y="329" type="line"/>
      <point x="269" y="390"/>
      <point x="319" y="537"/>
      <point x="359" y="619" type="qcurve"/>
      <point x="387" y="544"/>
      <point x="444" y="399" type="qcurve" smooth="yes"/>
      <point x="453" y="376"/>
      <point x="456" y="368"/>
    </contour>
  </outline>
</glyph>
<glyph name="multiply" format="2">
  <advance width="500"/>
  <unicode hex="00D7"/>
  <outline>
    <contour>
      <point x="104" y="528" type="line"/>
      <point x="69" y="493" type="line"/>
      <point x="223" y="339" type="line"/>
      <point x="68" y="184" type="line"/>
      <point x="105" y="147" type="line"/>
      <point x="260" y="302" type="line"/>
      <point x="414" y="148" type="line"/>
      <point x="449" y="183" type="line"/>
      <point x="295" y="337" type="line"/>
      <point x="450" y="492" type="line"/>
      <point x="413" y="529" type="line"/>
      <point x="258" y="374" type="line"/>
    </contour>
  </outline>
</glyph>
<glyph name="Thorn" format="2">
  <advance width="700"/>
  <unicode hex="00DE"/>
  <outline>
    <contour>
      <point x="397" y="769" type="line"/>
      <point x="47" y="770" type="line"/>
      <point x="47" y="731" type="line"/>
      <point x="78" y="734"/>
      <point x="99.5" y="728.5" type="qcurve" smooth="yes"/>
      <point x="121" y="723"/>
      <point x="131.5" y="716.5" type="qcurve" smooth="yes"/>
      <point x="142" y="710"/>
      <point x="148" y="694.5" type="qcurve" smooth="yes"/>
      <point x="154" y="679"/>
      <point x="154.5" y="673.5" type="qcurve" smooth="yes"/>
      <point x="155" y="668"/>
      <point x="156" y="653" type="qcurve" smooth="yes"/>
      <point x="161" y="593"/>
      <point x="157" y="420" type="qcurve"/>
      <point x="157" y="370" type="line"/>
      <point x="157" y="326" type="line"/>
      <point x="157" y="206" type="line"/>
      <point x="160" y="176"/>
      <point x="160" y="153" type="qcurve" smooth="yes"/>
      <point x="160" y="130"/>
      <point x="157" y="112.5" type="qcurve" smooth="yes"/>
      <point x="154" y="95"/>
      <point x="150" y="82.5" type="qcurve" smooth="yes"/>
      <point x="146" y="70"/>
      <point x="137.5" y="62" type="qcurve" smooth="yes"/>
      <point x="129" y="54"/>
      <point x="121.5" y="49.5" type="qcurve" smooth="yes"/>
      <point x="114" y="45"/>
      <point x="100.5" y="42.5" type="qcurve" smooth="yes"/>
      <point x="87" y="40"/>
      <point x="76" y="39" type="qcurve" smooth="yes"/>
      <point x="65" y="38"/>
      <point x="47" y="38" type="qcurve"/>
      <point x="47" y="-1" type="line"/>
      <point x="400" y="-1" type="line"/>
      <point x="398" y="36" type="line"/>
      <point x="396" y="36"/>
      <point x="380" y="36.5" type="qcurve" smooth="yes"/>
      <point x="364" y="37"/>
      <point x="347.5" y="39.5" type="qcurve" smooth="yes"/>
      <point x="331" y="42"/>
      <point x="312.5" y="48" type="qcurve" smooth="yes"/>
      <point x="294" y="54"/>
      <point x="280.5" y="70" type="qcurve" smooth="yes"/>
      <point x="267" y="86"/>
      <point x="263" y="110" type="qcurve"/>
      <point x="264" y="175" type="line"/>
      <point x="379" y="161"/>
      <point x="486" y="189" type="qcurve" smooth="yes"/>
      <point x="658" y="230"/>
      <point x="660" y="376" type="qcurve" smooth="yes"/>
      <point x="661" y="412"/>
      <point x="646.5" y="450.5" type="qcurve" smooth="yes"/>
      <point x="632" y="489"/>
      <point x="597.5" y="525" type="qcurve" smooth="yes"/>
      <point x="563" y="561"/>
      <point x="516" y="575" type="qcurve" smooth="yes"/>
      <point x="413" y="602"/>
      <point x="263" y="597" type="qcurve"/>
      <point x="262" y="623"/>
      <point x="265.5" y="660.5" type="qcurve" smooth="yes"/>
      <point x="269" y="698"/>
      <point x="283" y="707" type="qcurve" smooth="yes"/>
      <point x="326" y="735"/>
      <point x="399" y="730" type="qcurve"/>
    </contour>
    <contour>
      <point x="290" y="549" type="qcurve"/>
      <point x="397" y="549"/>
      <point x="429" y="545" type="qcurve" smooth="yes"/>
      <point x="459" y="542"/>
      <point x="480.5" y="524.5" type="qcurve" smooth="yes"/>
      <point x="502" y="507"/>
      <point x="512" y="483" type="qcurve" smooth="yes"/>
      <point x="522" y="459"/>
      <point x="526" y="443.5" type="qcurve" smooth="yes"/>
      <point x="530" y="428"/>
      <point x="531" y="414" type="qcurve" smooth="yes"/>
      <point x="535" y="364"/>
      <point x="504" y="289" type="qcurve" smooth="yes"/>
      <point x="492" y="259"/>
      <point x="446" y="243.5" type="qcurve" smooth="yes"/>
      <point x="400" y="228"/>
      <point x="365" y="227" type="qcurve" smooth="yes"/>
      <point x="357" y="227"/>
      <point x="322.5" y="227.5" type="qcurve" smooth="yes"/>
      <point x="288" y="228"/>
      <point x="260" y="227" type="qcurve"/>
      <point x="263" y="495" type="line"/>
      <point x="258" y="508"/>
      <point x="262" y="531.5" type="qcurve" smooth="yes"/>
      <point x="266" y="555"/>
    </contour>
  </outline>
</glyph>
<glyph name="ae" format="2">
  <advance width="850"/>
  <unicode hex="00E6"/>
  <outline>
    <contour>
      <point x="277" y="540" type="qcurve"/>
      <point x="242" y="542"/>
      <point x="196" y="534.5" type="qcurve" smooth="yes"/>
      <point x="150" y="527"/>
      <point x="122" y="516" type="qcurve" smooth="yes"/>
      <point x="86" y="502"/>
      <point x="72" y="464" type="qcurve" smooth="yes"/>
      <point x="58" y="426"/>
      <point x="78" y="404" type="qcurve" smooth="yes"/>
      <point x="91" y="389"/>
      <point x="113.5" y="388" type="qcurve" smooth="yes"/>
      <point x="136" y="387"/>
      <point x="152" y="403" type="qcurve" smooth="yes"/>
      <point x="155" y="407"/>
      <point x="175.5" y="451" type="qcurve" smooth="yes"/>
      <point x="196" y="495"/>
      <point x="215" y="499" type="qcurve" smooth="yes"/>
      <point x="300" y="516"/>
      <point x="334" y="458" type="qcurve" smooth="yes"/>
      <point x="352" y="428"/>
      <point x="349" y="329" type="qcurve"/>
      <point x="328" y="320"/>
      <point x="272.5" y="301" type="qcurve" smooth="yes"/>
      <point x="217" y="282"/>
      <point x="196" y="272" type="qcurve" smooth="yes"/>
      <point x="195" y="272"/>
      <point x="178.5" y="264" type="qcurve" smooth="yes"/>
      <point x="162" y="256"/>
      <point x="154.5" y="252" type="qcurve" smooth="yes"/>
      <point x="147" y="248"/>
      <point x="130" y="238" type="qcurve" smooth="yes"/>
      <point x="113" y="228"/>
      <point x="103" y="220.5" type="qcurve" smooth="yes"/>
      <point x="93" y="213"/>
      <point x="79.5" y="200" type="qcurve" smooth="yes"/>
      <point x="66" y="187"/>
      <point x="59" y="175" type="qcurve" smooth="yes"/>
      <point x="52" y="163"/>
      <point x="46.5" y="147" type="qcurve" smooth="yes"/>
      <point x="41" y="131"/>
      <point x="41" y="114" type="qcurve" smooth="yes"/>
      <point x="42" y="55"/>
      <point x="79" y="25.5" type="qcurve" smooth="yes"/>
      <point x="116" y="-4"/>
      <point x="161" y="-7" type="qcurve" smooth="yes"/>
      <point x="186" y="-9"/>
      <point x="212" y="-5.5" type="qcurve" smooth="yes"/>
      <point x="238" y="-2"/>
      <point x="271" y="8.5" type="qcurve" smooth="yes"/>
      <point x="304" y="19"/>
      <point x="333" y="47" type="qcurve" smooth="yes"/>
      <point x="362" y="75"/>
      <point x="379" y="117" type="qcurve"/>
      <point x="393" y="92"/>
      <point x="406.5" y="75" type="qcurve" smooth="yes"/>
      <point x="420" y="58"/>
      <point x="446.5" y="34.5" type="qcurve" smooth="yes"/>
      <point x="473" y="11"/>
      <point x="513.5" y="-0.5" type="qcurve" smooth="yes"/>
      <point x="554" y="-12"/>
      <point x="605" y="-10" type="qcurve" smooth="yes"/>
      <point x="663" y="-8"/>
      <point x="708" y="16" type="qcurve" smooth="yes"/>
      <point x="753" y="40"/>
      <point x="802" y="93" type="qcurve"/>
      <point x="771" y="121" type="line"/>
      <point x="770" y="120"/>
      <point x="755.5" y="106" type="qcurve" smooth="yes"/>
      <point x="741" y="92"/>
      <point x="737.5" y="89.5" type="qcurve" smooth="yes"/>
      <point x="734" y="87"/>
      <point x="720" y="75.5" type="qcurve" smooth="yes"/>
      <point x="706" y="64"/>
      <point x="697.5" y="60.5" type="qcurve" smooth="yes"/>
      <point x="689" y="57"/>
      <point x="674" y="51" type="qcurve" smooth="yes"/>
      <point x="659" y="45"/>
      <point x="644" y="43.5" type="qcurve" smooth="yes"/>
      <point x="629" y="42"/>
      <point x="611" y="42" type="qcurve" smooth="yes"/>
      <point x="578" y="43"/>
      <point x="539" y="71.5" type="qcurve" smooth="yes"/>
      <point x="500" y="100"/>
      <point x="477" y="164" type="qcurve" smooth="yes"/>
      <point x="458" y="216"/>
      <point x="467" y="318" type="qcurve"/>
      <point x="484" y="319"/>
      <point x="622" y="317" type="qcurve" smooth="yes"/>
      <point x="760" y="315"/>
      <point x="771" y="315" type="qcurve" smooth="yes"/>
      <point x="783" y="315"/>
      <point x="791" y="319" type="qcurve" smooth="yes"/>
      <point x="799" y="323"/>
      <point x="801.5" y="331.5" type="qcurve" smooth="yes"/>
      <point x="804" y="340"/>
      <point x="804.5" y="345" type="qcurve" smooth="yes"/>
      <point x="805" y="350"/>
      <point x="804.5" y="362" type="qcurve" smooth="yes"/>
      <point x="804" y="374"/>
      <point x="804" y="377" type="qcurve" smooth="yes"/>
      <point x="805" y="435"/>
      <point x="744.5" y="487.5" type="qcurve" smooth="yes"/>
      <point x="684" y="540"/>
      <point x="613" y="540" type="qcurve" smooth="yes"/>
      <point x="594" y="540"/>
      <point x="577.5" y="538.5" type="qcurve" smooth="yes"/>
      <point x="561" y="537"/>
      <point x="549.5" y="535.5" type="qcurve" smooth="yes"/>
      <point x="538" y="534"/>
      <point x="524" y="528.5" type="qcurve" smooth="yes"/>
      <point x="510" y="523"/>
      <point x="503.5" y="521" type="qcurve" smooth="yes"/>
      <point x="497" y="519"/>
      <point x="484" y="510.5" type="qcurve" smooth="yes"/>
      <point x="471" y="502"/>
      <point x="467.5" y="499.5" type="qcurve" smooth="yes"/>
      <point x="464" y="497"/>
      <point x="448.5" y="485.5" type="qcurve" smooth="yes"/>
      <point x="433" y="474"/>
      <point x="430" y="472" type="qcurve"/>
      <point x="410" y="505"/>
      <point x="378" y="520.5" type="qcurve" smooth="yes"/>
      <point x="346" y="536"/>
    </contour>
    <contour>
      <point x="348" y="286" type="qcurve"/>
      <point x="348" y="274"/>
      <point x="348" y="255" type="qcurve" smooth="yes"/>
      <point x="348" y="236"/>
      <point x="348" y="215" type="qcurve" smooth="yes"/>
      <point x="348" y="194"/>
      <point x="348" y="189" type="qcurve" smooth="yes"/>
      <point x="348" y="127"/>
      <point x="300" y="83" type="qcurve" smooth="yes"/>
      <point x="256" y="42"/>
      <point x="195" y="55" type="qcurve" smooth="yes"/>
      <point x="145" y="65"/>
      <point x="144" y="130" type="qcurve" smooth="yes"/>
      <point x="143" y="154"/>
      <point x="170.5" y="184" type="qcurve" smooth="yes"/>
      <point x="198" y="214"/>
      <point x="226" y="232" type="qcurve" smooth="yes"/>
      <point x="268" y="260"/>
    </contour>
    <contour>
      <point x="472" y="365" type="qcurve"/>
      <point x="500" y="467"/>
      <point x="565" y="487" type="qcurve" smooth="yes"/>
      <point x="598" y="495"/>
      <point x="616.5" y="491.5" type="qcurve" smooth="yes"/>
      <point x="635" y="488"/>
      <point x="659" y="471" type="qcurve" smooth="yes"/>
      <point x="685" y="453"/>
      <point x="695.5" y="413.5" type="qcurve" smooth="yes"/>
      <point x="706" y="374"/>
      <point x="678" y="364" type="qcurve"/>
      <point x="649" y="358"/>
    </contour>
  </outline>
</glyph>
<glyph name="eth" format="2">
  <advance width="600"/>
  <unicode hex="00F0"/>
  <outline>
    <contour>
      <point x="180" y="780" type="qcurve"/>
      <point x="159" y="744" type="line"/>
      <point x="199" y="737"/>
      <point x="299" y="681" type="qcurve"/>
      <point x="176" y="609" type="line"/>
      <point x="201" y="577" type="line"/>
      <point x="330" y="652" type="line"/>
      <point x="337" y="645" type="line" smooth="yes"/>
      <point x="344" y="638"/>
      <point x="348" y="633" type="qcurve" smooth="yes"/>
      <point x="352" y="628"/>
      <point x="361" y="617.5" type="qcurve" smooth="yes"/>
      <point x="370" y="607"/>
      <point x="377" y="597" type="qcurve" smooth="yes"/>
      <point x="384" y="587"/>
      <point x="393.5" y="572" type="qcurve" smooth="yes"/>
      <point x="403" y="557"/>
      <point x="411" y="540.5" type="qcurve" smooth="yes"/>
      <point x="419" y="524"/>
      <point x="427" y="505" type="qcurve" smooth="yes"/>
      <point x="435" y="486"/>
      <point x="442.5" y="462.5" type="qcurve" smooth="yes"/>
      <point x="450" y="439"/>
      <point x="456" y="414" type="qcurve"/>
      <point x="453" y="413" type="line"/>
      <point x="428" y="452"/>
      <point x="400.5" y="471" type="qcurve" smooth="yes"/>
      <point x="373" y="490"/>
      <point x="354.5" y="493.5" type="qcurve" smooth="yes"/>
      <point x="336" y="497"/>
      <point x="303" y="497" type="qcurve" smooth="yes"/>
      <point x="193" y="497"/>
      <point x="119" y="423" type="qcurve" smooth="yes"/>
      <point x="94" y="397"/>
      <point x="71" y="346" type="qcurve" smooth="yes"/>
      <point x="48" y="295"/>
      <point x="48" y="255" type="qcurve" smooth="yes"/>
      <point x="48" y="206"/>
      <point x="74" y="140" type="qcurve" smooth="yes"/>
      <point x="100" y="74"/>
      <point x="138" y="48" type="qcurve" smooth="yes"/>
      <point x="168" y="27"/>
      <point x="211" y="6.5" type="qcurve" smooth="yes"/>
      <point x="254" y="-14"/>
      <point x="281" y="-15" type="qcurve" smooth="yes"/>
      <point x="418" y="-22"/>
      <point x="517" y="99" type="qcurve"/>
      <point x="548" y="161"/>
      <point x="559.5" y="193" type="qcurve" smooth="yes"/>
      <point x="571" y="225"/>
      <point x="574" y="265" type="qcurve" smooth="yes"/>
      <point x="577" y="313"/>
      <point x="560.5" y="397" type="qcurve" smooth="yes"/>
      <point x="544" y="481"/>
      <point x="517" y="543" type="qcurve" smooth="yes"/>
      <point x="501" y="579"/>
      <point x="475.5" y="608" type="qcurve" smooth="yes"/>
      <point x="450" y="637"/>
      <point x="391" y="687" type="qcurve"/>
      <point x="504" y="751" type="line"/>
      <point x="480" y="786" type="line"/>
      <point x="353" y="713" type="line"/>
      <point x="314" y="734"/>
    </contour>
    <contour>
      <point x="319" y="449" type="qcurve"/>
      <point x="377" y="449"/>
      <point x="419" y="381" type="qcurve" smooth="yes"/>
      <point x="430" y="362"/>
      <point x="438.5" y="318.5" type="qcurve" smooth="yes"/>
      <point x="447" y="275"/>
      <point x="448" y="243" type="qcurve" smooth="yes"/>
      <point x="450" y="196"/>
      <point x="437.5" y="151" type="qcurve" smooth="yes"/>
      <point x="425" y="106"/>
      <point x="403" y="81" type="qcurve" smooth="yes"/>
      <point x="362" y="35"/>
      <point x="311" y="34" type="qcurve" smooth="yes"/>
      <point x="270" y="33"/>
      <point x="229" y="64" type="qcurve" smooth="yes"/>
      <point x="203" y="83"/>
      <point x="183" y="162" type="qcurve" smooth="yes"/>
      <point x="175" y="193"/>
      <point x="175" y="275" type="qcurve" smooth="yes"/>
      <point x="175" y="321"/>
      <point x="200" y="376" type="qcurve" smooth="yes"/>
      <point x="221" y="423"/>
      <point x="258" y="438" type="qcurve" smooth="yes"/>
      <point x="293" y="451"/>
    </contour>
  </outline>
</glyph>
<glyph name="thorn" format="2">
  <advance width="620"/>
  <unicode hex="00FE"/>
  <outline>
    <contour>
      <point x="187" y="829" type="qcurve"/>
      <point x="102" y="814"/>
      <point x="-1" y="791" type="qcurve"/>
      <point x="1" y="765" type="line"/>
      <point x="14" y="765"/>
      <point x="25" y="763" type="qcurve" smooth="yes"/>
      <point x="36" y="761"/>
      <point x="44" y="759" type="qcurve" smooth="yes"/>
      <point x="52" y="757"/>
      <point x="59" y="752" type="qcurve" smooth="yes"/>
      <point x="66" y="747"/>
      <point x="70" y="744.5" type="qcurve" smooth="yes"/>
      <point x="74" y="742"/>
      <point x="77.5" y="734.5" type="qcurve" smooth="yes"/>
      <point x="81" y="727"/>
      <point x="83" y="724.5" type="qcurve" smooth="yes"/>
      <point x="85" y="722"/>
      <point x="86.5" y="713" type="qcurve" smooth="yes"/>
      <point x="88" y="704"/>
      <point x="88" y="702" type="qcurve" smooth="yes"/>
      <point x="88" y="700"/>
      <point x="89" y="690" type="qcurve" smooth="yes"/>
      <point x="90" y="680"/>
      <point x="90" y="679" type="qcurve" smooth="yes"/>
      <point x="91" y="671"/>
      <point x="90.5" y="294.5" type="qcurve" smooth="yes"/>
      <point x="90" y="-82"/>
      <point x="90" y="-90" type="qcurve" smooth="yes"/>
      <point x="94" y="-164"/>
      <point x="75" y="-189.5" type="qcurve" smooth="yes"/>
      <point x="56" y="-215"/>
      <point x="-3" y="-214" type="qcurve"/>
      <point x="-3" y="-250" type="line"/>
      <point x="305" y="-252" type="line"/>
      <point x="303" y="-214" type="line"/>
      <point x="249" y="-217"/>
      <point x="221.5" y="-199.5" type="qcurve" smooth="yes"/>
      <point x="194" y="-182"/>
      <point x="191" y="-124" type="qcurve" smooth="yes"/>
      <point x="190" y="-118"/>
      <point x="192" y="55" type="qcurve"/>
      <point x="216" y="26"/>
      <point x="258.5" y="9.5" type="qcurve" smooth="yes"/>
      <point x="301" y="-7"/>
      <point x="327" y="-10" type="qcurve" smooth="yes"/>
      <point x="376" y="-14"/>
      <point x="424.5" y="3" type="qcurve" smooth="yes"/>
      <point x="473" y="20"/>
      <point x="496.5" y="36.5" type="qcurve" smooth="yes"/>
      <point x="520" y="53"/>
      <point x="532" y="66" type="qcurve" smooth="yes"/>
      <point x="563" y="97"/>
      <point x="581" y="150" type="qcurve" smooth="yes"/>
      <point x="599" y="203"/>
      <point x="605" y="243" type="qcurve" smooth="yes"/>
      <point x="612" y="289"/>
      <point x="594" y="343.5" type="qcurve" smooth="yes"/>
      <point x="576" y="398"/>
      <point x="559.5" y="425" type="qcurve" smooth="yes"/>
      <point x="543" y="452"/>
      <point x="530" y="468" type="qcurve" smooth="yes"/>
      <point x="505" y="499"/>
      <point x="448.5" y="520.5" type="qcurve" smooth="yes"/>
      <point x="392" y="542"/>
      <point x="366" y="541" type="qcurve" smooth="yes"/>
      <point x="332" y="539"/>
      <point x="311.5" y="536.5" type="qcurve" smooth="yes"/>
      <point x="291" y="534"/>
      <point x="254" y="514.5" type="qcurve" smooth="yes"/>
      <point x="217" y="495"/>
      <point x="191" y="459" type="qcurve"/>
      <point x="186" y="459" type="line"/>
      <point x="188" y="753" type="line"/>
      <point x="188" y="754"/>
      <point x="188.5" y="761.5" type="qcurve" smooth="yes"/>
      <point x="189" y="769"/>
      <point x="189" y="777" type="qcurve" smooth="yes"/>
      <point x="189" y="783"/>
    </contour>
    <contour>
      <point x="322" y="490" type="qcurve"/>
      <point x="399" y="491"/>
      <point x="441.5" y="436" type="qcurve" smooth="yes"/>
      <point x="484" y="381"/>
      <point x="492" y="309" type="qcurve" smooth="yes"/>
      <point x="502" y="222"/>
      <point x="474.5" y="140.5" type="qcurve" smooth="yes"/>
      <point x="447" y="59"/>
      <point x="394" y="47" type="qcurve" smooth="yes"/>
      <point x="337" y="36"/>
      <point x="294" y="44.5" type="qcurve" smooth="yes"/>
      <point x="251" y="53"/>
      <point x="234" y="74" type="qcurve" smooth="yes"/>
      <point x="205" y="110"/>
      <point x="193.5" y="174" type="qcurve" smooth="yes"/>
      <point x="182" y="238"/>
      <point x="184.5" y="289.5" type="qcurve" smooth="yes"/>
      <point x="187" y="341"/>
      <point x="195" y="375" type="qcurve" smooth="yes"/>
      <point x="208" y="426"/>
      <point x="242.5" y="460" type="qcurve" smooth="yes"/>
      <point x="277" y="494"/>
    </contour>
  </outline>
</glyph>
<glyph name="Lslash" format="2">
  <advance width="750"/>
  <unicode hex="0141"/>
  <outline>
    <contour>
      <point x="260" y="526" type="line"/>
      <point x="260" y="537" type="line"/>
      <point x="260" y="549" type="line"/>
      <point x="260" y="555" type="line"/>
      <point x="260" y="560" type="line"/>
      <point x="260" y="574" type="line"/>
      <point x="260" y="588" type="line"/>
      <point x="260" y="607" type="line"/>
      <point x="260" y="623" type="line"/>
      <point x="261" y="645" type="line"/>
      <point x="262" y="657" type="line"/>
      <point x="263" y="669" type="line"/>
      <point x="266" y="682" type="line"/>
      <point x="268" y="691" type="line"/>
      <point x="270" y="698" type="line"/>
      <point x="275" y="705" type="line"/>
      <point x="279" y="710" type="line"/>
      <point x="283" y="714" type="line"/>
      <point x="288" y="717" type="line"/>
      <point x="294" y="720" type="line"/>
      <point x="301" y="724" type="line"/>
      <point x="309" y="726" type="line"/>
      <point x="318" y="728" type="line"/>
      <point x="327" y="729" type="line"/>
      <point x="332" y="730" type="line"/>
      <point x="338" y="731" type="line"/>
      <point x="351" y="732" type="line"/>
      <point x="359" y="732" type="line"/>
      <point x="360" y="768" type="line"/>
      <point x="55" y="770" type="line"/>
      <point x="55" y="732" type="line"/>
      <point x="73" y="731" type="line"/>
      <point x="95" y="728" type="line"/>
      <point x="116" y="723" type="line"/>
      <point x="130" y="716" type="line"/>
      <point x="142" y="702" type="line"/>
      <point x="147" y="691" type="line"/>
      <point x="150" y="681" type="line"/>
      <point x="154" y="655" type="line"/>
      <point x="155" y="607" type="line"/>
      <point x="156" y="382" type="line"/>
      <point x="67" y="322" type="line"/>
      <point x="67" y="267" type="line"/>
      <point x="154" y="323" type="line"/>
      <point x="156" y="158" type="line"/>
      <point x="152" y="92" type="line"/>
      <point x="143" y="69" type="line"/>
      <point x="126" y="53" type="line"/>
      <point x="101" y="43" type="line"/>
      <point x="68" y="40" type="line"/>
      <point x="45" y="39" type="line"/>
      <point x="46" y="0" type="line"/>
      <point x="91" y="0" type="line"/>
      <point x="114" y="0" type="line"/>
      <point x="139" y="0" type="line"/>
      <point x="155" y="0" type="line"/>
      <point x="205" y="0" type="line"/>
      <point x="265" y="0" type="line"/>
      <point x="297" y="0" type="line"/>
      <point x="331" y="0" type="line"/>
      <point x="370" y="0" type="line"/>
      <point x="397" y="0" type="line"/>
      <point x="511" y="0" type="line"/>
      <point x="609" y="0" type="line"/>
      <point x="639" y="0" type="line"/>
      <point x="690" y="0" type="line"/>
      <point x="693" y="28" type="line"/>
      <point x="694" y="42" type="line"/>
      <point x="696" y="66" type="line"/>
      <point x="697" y="78" type="line"/>
      <point x="698" y="91" type="line"/>
      <point x="704" y="160" type="line"/>
      <point x="705" y="197" type="line"/>
      <point x="668" y="198" type="line"/>
      <point x="660" y="165" type="line"/>
      <point x="654" y="147" type="line"/>
      <point x="648" y="134" type="line"/>
      <point x="635" y="108" type="line"/>
      <point x="614" y="84" type="line"/>
      <point x="581" y="65" type="line"/>
      <point x="534" y="51" type="line"/>
      <point x="494" y="46" type="line"/>
      <point x="442" y="45" type="line"/>
      <point x="402" y="46" type="line"/>
      <point x="368" y="48" type="line"/>
      <point x="345" y="51" type="line"/>
      <point x="323" y="57" type="line"/>
      <point x="304" y="66" type="line"/>
      <point x="294" y="73" type="line"/>
      <point x="285" y="82" type="line"/>
      <point x="276" y="95" type="line"/>
      <point x="268" y="111" type="line"/>
      <point x="265" y="126" type="line"/>
      <point x="262" y="143" type="line"/>
      <point x="261" y="154" type="line"/>
      <point x="260" y="165" type="line"/>
      <point x="261" y="184" type="line"/>
      <point x="261" y="231" type="line"/>
      <point x="261" y="247" type="line"/>
      <point x="261" y="266" type="line"/>
      <point x="261" y="294" type="line"/>
      <point x="261" y="307" type="line"/>
      <point x="261" y="326" type="line"/>
      <point x="261" y="339" type="line"/>
      <point x="261" y="353" type="line"/>
      <point x="261" y="369" type="line"/>
      <point x="261" y="388" type="line"/>
      <point x="392" y="471" type="line"/>
      <point x="388" y="527" type="line"/>
      <point x="260" y="451" type="line"/>
      <point x="260" y="472" type="line"/>
      <point x="260" y="502" type="line"/>
      <point x="260" y="518" type="line"/>
    </contour>
  </outline>
</glyph>
<glyph name="lslash" format="2">
  <advance width="500"/>
  <unicode hex="0142"/>
  <outline>
    <contour>
      <point x="209" y="830" type="line"/>
      <point x="181" y="824" type="line"/>
      <point x="153" y="819" type="line"/>
      <point x="117" y="812" type="line"/>
      <point x="56" y="800" type="line"/>
      <point x="20" y="793" type="line"/>
      <point x="20" y="758" type="line"/>
      <point x="40" y="760" type="line"/>
      <point x="61" y="757" type="line"/>
      <point x="81" y="752" type="line"/>
      <point x="98" y="744" type="line"/>
      <point x="116" y="720"/>
      <point x="115" y="675" type="qcurve"/>
      <point x="115" y="657" type="line"/>
      <point x="117" y="410" type="line"/>
      <point x="35" y="359" type="line"/>
      <point x="37" y="292" type="line"/>
      <point x="115" y="341" type="line"/>
      <point x="114" y="104" type="line"/>
      <point x="109" y="79" type="line"/>
      <point x="101" y="62" type="line"/>
      <point x="85" y="48" type="line"/>
      <point x="67" y="41" type="line"/>
      <point x="43" y="36" type="line"/>
      <point x="22" y="35" type="line"/>
      <point x="22" y="0" type="line"/>
      <point x="160" y="0" type="line"/>
      <point x="298" y="0" type="line"/>
      <point x="298" y="35" type="line"/>
      <point x="286" y="35" type="line"/>
      <point x="271" y="35" type="line"/>
      <point x="256" y="39" type="line"/>
      <point x="245" y="43" type="line"/>
      <point x="239" y="46" type="line"/>
      <point x="232" y="51" type="line"/>
      <point x="225" y="58" type="line"/>
      <point x="219" y="68" type="line"/>
      <point x="215" y="79" type="line"/>
      <point x="212" y="94" type="line"/>
      <point x="210" y="117" type="line"/>
      <point x="211" y="400" type="line"/>
      <point x="292" y="450" type="line"/>
      <point x="290" y="514" type="line"/>
      <point x="211" y="466" type="line"/>
      <point x="209" y="704" type="line"/>
      <point x="209" y="726" type="line"/>
      <point x="209" y="747" type="line"/>
      <point x="209" y="765" type="line"/>
      <point x="209" y="788" type="line"/>
      <point x="209" y="805" type="line"/>
    </contour>
  </outline>
</glyph>
<glyph name="fhook" format="2">
  <advance width="700"/>
  <unicode hex="0192"/>
  <outline>
    <contour>
      <point x="637" y="685" type="qcurve"/>
      <point x="648" y="695"/>
      <point x="642" y="718" type="qcurve" smooth="yes"/>
      <point x="636" y="741"/>
      <point x="618" y="753" type="qcurve" smooth="yes"/>
      <point x="587" y="774"/>
      <point x="531" y="779.5" type="qcurve" smooth="yes"/>
      <point x="475" y="785"/>
      <point x="442" y="773" type="qcurve" smooth="yes"/>
      <point x="407" y="762"/>
      <point x="363.5" y="726" type="qcurve" smooth="yes"/>
      <point x="320" y="690"/>
      <point x="301" y="656" type="qcurve" smooth="yes"/>
      <point x="270" y="603"/>
      <point x="243" y="467" type="qcurve"/>
      <point x="156" y="467" type="line"/>
      <point x="144" y="467" type="line"/>
      <point x="141" y="456" type="line"/>
      <point x="133" y="430" type="line"/>
      <point x="130" y="419" type="line"/>
      <point x="145" y="419" type="line"/>
      <point x="235" y="419" type="line"/>
      <point x="235" y="396"/>
      <point x="204" y="214.5" type="qcurve" smooth="yes"/>
      <point x="173" y="33"/>
      <point x="166" y="0" type="qcurve" smooth="yes"/>
      <point x="166" y="-2"/>
      <point x="162" y="-27" type="qcurve" smooth="yes"/>
      <point x="158" y="-52"/>
      <point x="152.5" y="-77.5" type="qcurve" smooth="yes"/>
      <point x="147" y="-103"/>
      <point x="137.5" y="-132.5" type="qcurve" smooth="yes"/>
      <point x="128" y="-162"/>
      <point x="111" y="-183.5" type="qcurve" smooth="yes"/>
      <point x="94" y="-205"/>
      <point x="72" y="-212" type="qcurve"/>
      <point x="54" y="-212"/>
      <point x="41" y="-203" type="qcurve" smooth="yes"/>
      <point x="28" y="-194"/>
      <point x="12.5" y="-169.5" type="qcurve" smooth="yes"/>
      <point x="-3" y="-145"/>
      <point x="-5" y="-143" type="qcurve" smooth="yes"/>
      <point x="-20" y="-125"/>
      <point x="-43" y="-123" type="qcurve" smooth="yes"/>
      <point x="-66" y="-121"/>
      <point x="-79" y="-134" type="qcurve" smooth="yes"/>
      <point x="-92" y="-148"/>
      <point x="-91" y="-175.5" type="qcurve" smooth="yes"/>
      <point x="-90" y="-203"/>
      <point x="-79" y="-218" type="qcurve" smooth="yes"/>
      <point x="-65" y="-237"/>
      <point x="-17.5" y="-250.5" type="qcurve" smooth="yes"/>
      <point x="30" y="-264"/>
      <point x="76" y="-250" type="qcurve" smooth="yes"/>
      <point x="105" y="-239"/>
      <point x="125.5" y="-227.5" type="qcurve" smooth="yes"/>
      <point x="146" y="-216"/>
      <point x="175.5" y="-182.5" type="qcurve" smooth="yes"/>
      <point x="205" y="-149"/>
      <point x="223" y="-101" type="qcurve" smooth="yes"/>
      <point x="290" y="82"/>
      <point x="333" y="419" type="qcurve"/>
      <point x="437" y="418" type="line"/>
      <point x="451" y="418" type="line"/>
      <point x="455" y="434" type="line"/>
      <point x="461" y="456" type="line"/>
      <point x="464" y="467" type="line"/>
      <point x="448" y="467" type="line"/>
      <point x="340" y="468" type="line"/>
      <point x="347" y="531"/>
      <point x="374" y="624" type="qcurve" smooth="yes"/>
      <point x="387" y="669"/>
      <point x="410" y="699" type="qcurve" smooth="yes"/>
      <point x="433" y="729"/>
      <point x="459" y="731" type="qcurve" smooth="yes"/>
      <point x="482" y="733"/>
      <point x="504.5" y="722.5" type="qcurve" smooth="yes"/>
      <point x="527" y="712"/>
      <point x="537" y="703" type="qcurve" smooth="yes"/>
      <point x="547" y="694"/>
      <point x="567" y="674" type="qcurve" smooth="yes"/>
      <point x="576" y="661"/>
      <point x="599.5" y="662" type="qcurve" smooth="yes"/>
      <point x="623" y="663"/>
    </contour>
  </outline>
</glyph>
<glyph name="ogonek" format="2">
  <advance width="300"/>
  <unicode hex="02DB"/>
  <outline>
    <contour>
      <point x="203" y="13" type="curve"/>
      <point x="154" y="13" type="line"/>
      <point x="126" y="-2"/>
      <point x="61" y="-30"/>
      <point x="32" y="-65" type="curve" smooth="yes"/>
      <point x="3" y="-100"/>
      <point x="-11" y="-167"/>
      <point x="11" y="-198" type="curve" smooth="yes"/>
      <point x="33" y="-229"/>
      <point x="89" y="-244"/>
      <point x="159" y="-223" type="curve" smooth="yes"/>
      <point x="182" y="-216"/>
      <point x="224" y="-193"/>
      <point x="253" y="-153" type="curve"/>
      <point x="224" y="-123" type="line"/>
      <point x="198" y="-142"/>
      <point x="185" y="-159"/>
      <point x="161" y="-169" type="curve" smooth="yes"/>
      <point x="122" y="-184"/>
      <point x="95" y="-171"/>
      <point x="82" y="-147" type="curve" smooth="yes"/>
      <point x="73" y="-131"/>
      <point x="76" y="-53"/>
    </contour>
  </outline>
</glyph>
<glyph name="gravecomb" format="2">
  <unicode hex="0300"/>
  <anchor x="81" y="602" name="_top"/>
  <outline>
    <contour>
      <point x="107" y="651" type="line"/>
      <point x="-31" y="778" type="line"/>
      <point x="-53" y="795"/>
      <point x="-57" y="797"/>
      <point x="-79" y="802" type="curve" smooth="yes"/>
      <point x="-106" y="808"/>
      <point x="-125" y="794"/>
      <point x="-128" y="770" type="curve" smooth="yes"/>
      <point x="-130" y="751"/>
      <point x="-104" y="732"/>
      <point x="-95" y="726" type="curve" smooth="yes"/>
      <point x="-88" y="721"/>
      <point x="-41" y="700"/>
      <point x="61" y="651" type="curve"/>
    </contour>
  </outline>
</glyph>
<glyph name="acutecomb" format="2">
  <unicode hex="0301"/>
  <outline>
    <contour>
      <point x="-128" y="651" type="line"/>
      <point x="-82" y="651" type="line"/>
      <point x="20" y="700"/>
      <point x="67" y="721"/>
      <point x="74" y="726" type="curve" smooth="yes"/>
      <point x="83" y="732"/>
      <point x="109" y="751"/>
      <point x="107" y="770" type="curve" smooth="yes"/>
      <point x="104" y="794"/>
      <point x="85" y="808"/>
      <point x="58" y="802" type="curve" smooth="yes"/>
      <point x="36" y="797"/>
      <point x="32" y="795"/>
      <point x="10" y="778" type="curve"/>
    </contour>
  </outline>
</glyph>
<glyph name="dieresiscomb" format="2">
  <unicode hex="0308"/>
  <outline>
    <contour>
      <point x="-49" y="712" type="curve" smooth="yes"/>
      <point x="-48" y="737"/>
      <point x="-66" y="767"/>
      <point x="-103" y="767" type="curve" smooth="yes"/>
      <point x="-139" y="767"/>
      <point x="-156" y="735"/>
      <point x="-156" y="712" type="curve" smooth="yes"/>
      <point x="-156" y="700"/>
      <point x="-140" y="661"/>
      <point x="-103" y="661" type="curve" smooth="yes"/>
      <point x="-67" y="662"/>
      <point x="-50" y="688"/>
    </contour>
    <contour>
      <point x="153" y="711" type="curve" smooth="yes"/>
      <point x="154" y="737"/>
      <point x="137" y="767"/>
      <point x="100" y="767" type="curve" smooth="yes"/>
      <point x="63" y="767"/>
      <point x="46" y="735"/>
      <point x="46" y="711" type="curve" smooth="yes"/>
      <point x="46" y="699"/>
      <point x="63" y="660"/>
      <point x="99" y="661" type="curve" smooth="yes"/>
      <point x="135" y="662"/>
      <point x="153" y="687"/>
    </contour>
  </outline>
</glyph>
<glyph name="cedillacomb" format="2">
  <advance width="0"/>
  <unicode hex="0327"/>
  <outline>
    <contour>
      <point x="29" y="14" type="line"/>
      <point x="-24" y="14" type="line"/>
      <point x="-77" y="-108" type="line"/>
      <point x="-74" y="-113" type="line"/>
      <point x="-49" y="-112"/>
      <point x="-27" y="-111.5" type="qcurve" smooth="yes"/>
      <point x="-5" y="-111"/>
      <point x="13.5" y="-120" type="qcurve" smooth="yes"/>
      <point x="32" y="-129"/>
      <point x="39" y="-149" type="qcurve" smooth="yes"/>
      <point x="47" y="-172"/>
      <point x="29.5" y="-194.5" type="qcurve" smooth="yes"/>
      <point x="12" y="-217"/>
      <point x="-14" y="-215" type="qcurve" smooth="yes"/>
      <point x="-30" y="-214"/>
      <point x="-38.5" y="-206" type="qcurve" smooth="yes"/>
      <point x="-47" y="-198"/>
      <point x="-53.5" y="-182" type="qcurve" smooth="yes"/>
      <point x="-60" y="-166"/>
      <point x="-63" y="-162" type="qcurve" smooth="yes"/>
      <point x="-83" y="-132"/>
      <point x="-109" y="-153" type="qcurve" smooth="yes"/>
      <point x="-117" y="-160"/>
      <point x="-118" y="-181" type="qcurve" smooth="yes"/>
      <point x="-119" y="-202"/>
      <point x="-110" y="-216" type="qcurve" smooth="yes"/>
      <point x="-98" y="-233"/>
      <point x="-69.5" y="-245.5" type="qcurve" smooth="yes"/>
      <point x="-41" y="-258"/>
      <point x="-7" y="-258" type="qcurve" smooth="yes"/>
      <point x="35" y="-258"/>
      <point x="71" y="-240.5" type="qcurve" smooth="yes"/>
      <point x="107" y="-223"/>
      <point x="117" y="-190" type="qcurve" smooth="yes"/>
      <point x="137" y="-116"/>
      <point x="90" y="-91" type="qcurve" smooth="yes"/>
      <point x="68" y="-79"/>
      <point x="53" y="-75" type="qcurve" smooth="yes"/>
      <point x="38" y="-71"/>
      <point x="21.5" y="-71" type="qcurve" smooth="yes"/>
      <point x="5" y="-71"/>
      <point x="-2" y="-70" type="qcurve"/>
    </contour>
  </outline>
</glyph>
<glyph name="Germandbls" format="2">
  <advance width="700"/>
  <unicode hex="1E9E"/>
  <guideline x="153" y="510" angle="90"/>
  <outline>
    <contour>
      <point x="321" y="6" type="curve"/>
      <point x="336" y="3"/>
      <point x="407" y="-32"/>
      <point x="464" y="-19" type="curve"/>
      <point x="567" y="-3" type="line"/>
      <point x="621" y="10"/>
      <point x="617" y="20"/>
      <point x="650" y="60" type="curve" smooth="yes"/>
      <point x="683" y="100"/>
      <point x="692" y="105"/>
      <point x="699" y="149" type="curve" smooth="yes"/>
      <point x="705" y="188"/>
      <point x="693" y="196"/>
      <point x="679" y="245" type="curve" smooth="yes"/>
      <point x="668" y="285"/>
      <point x="608" y="339"/>
      <point x="574" y="363" type="curve" smooth="yes"/>
      <point x="383" y="501"/>
      <point x="381" y="597" type="qcurve"/>
      <point x="383" y="650"/>
      <point x="508" y="722"/>
      <point x="671" y="694" type="curve"/>
      <point x="655" y="725"/>
      <point x="615" y="773"/>
      <point x="583" y="794" type="curve" smooth="yes"/>
      <point x="419" y="902"/>
      <point x="229" y="844"/>
      <point x="104" y="757" type="curve"/>
      <point x="76" y="737"/>
      <point x="64" y="724"/>
      <point x="48" y="686" type="curve"/>
      <point x="47" y="676"/>
      <point x="47" y="645"/>
      <point x="48" y="622" type="curve" smooth="yes"/>
      <point x="50" y="570"/>
      <point x="50" y="555"/>
      <point x="49" y="535" type="curve"/>
      <point x="50" y="493"/>
      <point x="50" y="297"/>
      <point x="49" y="236" type="curve" smooth="yes"/>
      <point x="48" y="168"/>
      <point x="51" y="54"/>
      <point x="51" y="0" type="curve"/>
      <point x="94" y="0" type="line"/>
      <point x="153" y="0" type="line"/>
      <point x="152" y="55"/>
      <point x="154" y="215"/>
      <point x="153" y="238" type="curve" smooth="yes"/>
      <point x="152" y="258"/>
      <point x="154" y="672"/>
      <point x="154" y="672" type="curve"/>
      <point x="175" y="771"/>
      <point x="423" y="825"/>
      <point x="523" y="748" type="curve"/>
      <point x="345" y="743"/>
      <point x="292" y="682"/>
      <point x="275" y="535" type="curve"/>
      <point x="274" y="450"/>
      <point x="334" y="393"/>
      <point x="414" y="342" type="curve" smooth="yes"/>
      <point x="495" y="290"/>
      <point x="592" y="204"/>
      <point x="583" y="162" type="curve" smooth="yes"/>
      <point x="575" y="124"/>
      <point x="580" y="92"/>
      <point x="510" y="63" type="curve" smooth="yes"/>
      <point x="470" y="46"/>
      <point x="361" y="23"/>
      <point x="292" y="136" type="curve"/>
      <point x="248" y="94" type="line"/>
      <point x="286" y="26"/>
      <point x="294" y="35"/>
    </contour>
  </outline>
</glyph>
<glyph name="emdash" format="2">
  <advance width="1000"/>
  <unicode hex="2014"/>
  <outline>
    <contour>
      <point x="-4" y="423" type="line"/>
      <point x="-4" y="342" type="line"/>
      <point x="1001" y="342" type="line"/>
      <point x="1001" y="423" type="line"/>
    </contour>
  </outline>
</glyph>
<glyph name="daggerdbl" format="2">
  <advance width="500"/>
  <unicode hex="2021"/>
  <outline>
    <contour>
      <point x="199" y="260" type="qcurve"/>
      <point x="199" y="261"/>
      <point x="204.5" y="269" type="qcurve" smooth="yes"/>
      <point x="210" y="277"/>
      <point x="218.5" y="292.5" type="qcurve" smooth="yes"/>
      <point x="227" y="308"/>
      <point x="235" y="328" type="qcurve" smooth="yes"/>
      <point x="243" y="348"/>
      <point x="249" y="378.5" type="qcurve" smooth="yes"/>
      <point x="255" y="409"/>
      <point x="254" y="442" type="qcurve"/>
      <point x="254" y="470" type="line"/>
      <point x="244" y="472"/>
      <point x="173" y="450.5" type="qcurve" smooth="yes"/>
      <point x="102" y="429"/>
      <point x="88" y="429" type="qcurve" smooth="yes"/>
      <point x="67" y="429"/>
      <point x="48.5" y="448.5" type="qcurve" smooth="yes"/>
      <point x="30" y="468"/>
      <point x="29" y="490" type="qcurve" smooth="yes"/>
      <point x="28" y="510"/>
      <point x="48.5" y="533" type="qcurve" smooth="yes"/>
      <point x="69" y="556"/>
      <point x="84" y="556" type="qcurve" smooth="yes"/>
      <point x="92" y="556"/>
      <point x="230" y="512" type="qcurve" smooth="yes"/>
      <point x="247" y="509"/>
      <point x="248.5" y="511" type="qcurve" smooth="yes"/>
      <point x="250" y="513"/>
      <point x="252" y="528" type="qcurve" smooth="yes"/>
      <point x="259" y="586"/>
      <point x="213" y="709" type="qcurve" smooth="yes"/>
      <point x="207" y="724"/>
      <point x="224" y="750" type="qcurve" smooth="yes"/>
      <point x="241" y="776"/>
      <point x="277" y="781" type="qcurve"/>
      <point x="311" y="780"/>
      <point x="328" y="755" type="qcurve" smooth="yes"/>
      <point x="345" y="730"/>
      <point x="337" y="695" type="qcurve" smooth="yes"/>
      <point x="336" y="691"/>
      <point x="324.5" y="658" type="qcurve" smooth="yes"/>
      <point x="313" y="625"/>
      <point x="305" y="587.5" type="qcurve" smooth="yes"/>
      <point x="297" y="550"/>
      <point x="298" y="513" type="qcurve"/>
      <point x="317" y="509"/>
      <point x="379" y="530.5" type="qcurve" smooth="yes"/>
      <point x="441" y="552"/>
      <point x="462" y="553" type="qcurve" smooth="yes"/>
      <point x="491" y="555"/>
      <point x="506.5" y="534" type="qcurve" smooth="yes"/>
      <point x="522" y="513"/>
      <point x="522" y="492" type="qcurve" smooth="yes"/>
      <point x="522" y="470"/>
      <point x="505" y="448.5" type="qcurve" smooth="yes"/>
      <point x="488" y="427"/>
      <point x="454" y="429" type="qcurve" smooth="yes"/>
      <point x="440" y="430"/>
      <point x="376" y="451.5" type="qcurve" smooth="yes"/>
      <point x="312" y="473"/>
      <point x="298" y="468" type="qcurve" smooth="yes"/>
      <point x="296" y="467"/>
      <point x="304" y="377" type="qcurve" smooth="yes"/>
      <point x="306" y="354"/>
      <point x="318" y="325.5" type="qcurve" smooth="yes"/>
      <point x="330" y="297"/>
      <point x="340.5" y="278.5" type="qcurve" smooth="yes"/>
      <point x="351" y="260"/>
      <point x="351" y="259" type="qcurve"/>
      <point x="351" y="258"/>
      <point x="340.5" y="240.5" type="qcurve" smooth="yes"/>
      <point x="330" y="223"/>
      <point x="318.5" y="195" type="qcurve" smooth="yes"/>
      <point x="307" y="167"/>
      <point x="305" y="144" type="qcurve" smooth="yes"/>
      <point x="297" y="54"/>
      <point x="299" y="53" type="qcurve" smooth="yes"/>
      <point x="313" y="48"/>
      <point x="377" y="69.5" type="qcurve" smooth="yes"/>
      <point x="441" y="91"/>
      <point x="455" y="92" type="qcurve" smooth="yes"/>
      <point x="489" y="94"/>
      <point x="506" y="72.5" type="qcurve" smooth="yes"/>
      <point x="523" y="51"/>
      <point x="523" y="29" type="qcurve" smooth="yes"/>
      <point x="523" y="8"/>
      <point x="507.5" y="-13" type="qcurve" smooth="yes"/>
      <point x="492" y="-34"/>
      <point x="463" y="-32" type="qcurve" smooth="yes"/>
      <point x="442" y="-31"/>
      <point x="380" y="-9.5" type="qcurve" smooth="yes"/>
      <point x="318" y="12"/>
      <point x="299" y="8" type="qcurve"/>
      <point x="298" y="-29"/>
      <point x="306" y="-66.5" type="qcurve" smooth="yes"/>
      <point x="314" y="-104"/>
      <point x="325.5" y="-137" type="qcurve" smooth="yes"/>
      <point x="337" y="-170"/>
      <point x="338" y="-174" type="qcurve" smooth="yes"/>
      <point x="346" y="-209"/>
      <point x="329" y="-234" type="qcurve" smooth="yes"/>
      <point x="312" y="-259"/>
      <point x="278" y="-260" type="qcurve"/>
      <point x="242" y="-255"/>
      <point x="225" y="-229" type="qcurve" smooth="yes"/>
      <point x="208" y="-203"/>
      <point x="214" y="-188" type="qcurve" smooth="yes"/>
      <point x="260" y="-65"/>
      <point x="253" y="-7" type="qcurve" smooth="yes"/>
      <point x="251" y="8"/>
      <point x="249.5" y="10" type="qcurve" smooth="yes"/>
      <point x="248" y="12"/>
      <point x="231" y="9" type="qcurve" smooth="yes"/>
      <point x="93" y="-35"/>
      <point x="85" y="-35" type="qcurve" smooth="yes"/>
      <point x="70" y="-35"/>
      <point x="49.5" y="-12" type="qcurve" smooth="yes"/>
      <point x="29" y="11"/>
      <point x="30" y="31" type="qcurve" smooth="yes"/>
      <point x="31" y="53"/>
      <point x="49.5" y="72.5" type="qcurve" smooth="yes"/>
      <point x="68" y="92"/>
      <point x="89" y="92" type="qcurve" smooth="yes"/>
      <point x="103" y="92"/>
      <point x="174" y="70.5" type="qcurve" smooth="yes"/>
      <point x="245" y="49"/>
      <point x="255" y="51" type="qcurve"/>
      <point x="255" y="79" type="line"/>
      <point x="256" y="112"/>
      <point x="250" y="142.5" type="qcurve" smooth="yes"/>
      <point x="244" y="173"/>
      <point x="235.5" y="193" type="qcurve" smooth="yes"/>
      <point x="227" y="213"/>
      <point x="218.5" y="228" type="qcurve" smooth="yes"/>
      <point x="210" y="243"/>
      <point x="204.5" y="251" type="qcurve" smooth="yes"/>
      <point x="199" y="259"/>
    </contour>
  </outline>
</glyph>
<glyph name="bullet" format="2">
  <advance width="500"/>
  <unicode hex="2022"/>
  <outline>
    <contour>
      <point x="390" y="366" type="qcurve" smooth="yes"/>
      <point x="390" y="427"/>
      <point x="346.5" y="470" type="qcurve" smooth="yes"/>
      <point x="303" y="513"/>
      <point x="241" y="513" type="qcurve" smooth="yes"/>
      <point x="179" y="513"/>
      <point x="135.5" y="470" type="qcurve" smooth="yes"/>
      <point x="92" y="427"/>
      <point x="92" y="366" type="qcurve" smooth="yes"/>
      <point x="92" y="305"/>
      <point x="135.5" y="262" type="qcurve" smooth="yes"/>
      <point x="179" y="219"/>
      <point x="241" y="219" type="qcurve" smooth="yes"/>
      <point x="303" y="219"/>
      <point x="346.5" y="262" type="qcurve" smooth="yes"/>
      <point x="390" y="305"/>
    </contour>
  </outline>
</glyph>
<glyph name="guilsinglleft" format="2">
  <advance width="288"/>
  <unicode hex="2039"/>
  <outline>
    <contour>
      <point x="238" y="401" type="line"/>
      <point x="218" y="420" type="line"/>
      <point x="47" y="261" type="line"/>
      <point x="218" y="104" type="line"/>
      <point x="237" y="124" type="line"/>
      <point x="139" y="263" type="line"/>
    </contour>
  </outline>
</glyph>
<glyph name="minus" format="2">
  <advance width="550"/>
  <unicode hex="2212"/>
  <outline>
    <contour>
      <point x="47" y="412" type="line"/>
      <point x="47" y="363" type="line"/>
      <point x="501" y="363" type="line"/>
      <point x="501" y="412" type="line"/>
    </contour>
  </outline>
</glyph>
